/* XPM */
static char *result[] = {
/* columns rows colors chars-per-pixel */
"32 32 185 2 ",
"   c #000001",
".  c #04050B",
"X  c #0A0707",
"o  c #160503",
"O  c #181409",
"+  c #020B13",
"@  c #090B14",
"#  c #011614",
"$  c #01111B",
"%  c #001B1A",
"&  c #001A17",
"*  c #1D1B1B",
"=  c #161812",
"-  c #0D160D",
";  c #3B0203",
":  c #250804",
">  c #08211B",
",  c #29291C",
"<  c #001C24",
"1  c #00242D",
"2  c #062823",
"3  c #04322C",
"4  c #043025",
"5  c #002C36",
"6  c #003333",
"7  c #00393B",
"8  c #083438",
"9  c #153338",
"0  c #2E2A26",
"q  c #302F24",
"w  c #2D393F",
"e  c #34393B",
"r  c #480B00",
"t  c #610E02",
"y  c #610000",
"u  c #7E0A00",
"i  c #711004",
"p  c #4E3110",
"a  c #6D3B00",
"s  c #743F00",
"d  c #423939",
"f  c #01423B",
"g  c #244137",
"h  c #484219",
"j  c #644502",
"k  c #764800",
"l  c #6D5400",
"z  c #4B442C",
"x  c #564F29",
"c  c #685A29",
"v  c #727928",
"b  c #003B43",
"n  c #003E49",
"m  c #04354E",
"M  c #163B49",
"N  c #0B3E50",
"B  c #303A46",
"V  c #00424D",
"C  c #134B40",
"Z  c #025F4D",
"A  c #004553",
"S  c #00495A",
"D  c #0C4C57",
"F  c #0F5451",
"G  c #134254",
"H  c #344551",
"J  c #3D6A48",
"K  c #21605C",
"L  c #34625C",
"P  c #024C61",
"I  c #054B63",
"U  c #005464",
"Y  c #0B566D",
"T  c #135469",
"R  c #165166",
"E  c #065972",
"W  c #135B76",
"Q  c #155A75",
"!  c #0C6271",
"~  c #0B637C",
"^  c #1A6A7C",
"/  c #316172",
"(  c #387765",
")  c #524E4D",
"_  c #47584C",
"`  c #4D5058",
"'  c #604D4B",
"]  c #615C4C",
"[  c #50664B",
"{  c #545A64",
"}  c #686565",
"|  c #7B7669",
" . c #7B6F70",
".. c #911401",
"X. c #AC0804",
"o. c #CD1E00",
"O. c #C92401",
"+. c #DC2A00",
"@. c #CA3E00",
"#. c #F93100",
"$. c #936500",
"%. c #9E7D00",
"&. c #B06F00",
"*. c #B47B00",
"=. c #B87600",
"-. c #A87000",
";. c #807938",
":. c #FF5F00",
">. c #C37E00",
",. c #CA7800",
"<. c #D27200",
"1. c #8C7F48",
"2. c #168A6F",
"3. c #18896D",
"4. c #1C8167",
"5. c #138F73",
"6. c #169475",
"7. c #189375",
"8. c #1B9778",
"9. c #8F8610",
"0. c #AC8200",
"q. c #B38B00",
"w. c #8D833F",
"e. c #C68600",
"r. c #D68100",
"t. c #C29200",
"y. c #DB9500",
"u. c #E39A00",
"i. c #DFA800",
"p. c #C9A006",
"a. c #FFBC00",
"s. c #FDD41A",
"d. c #FCD82D",
"f. c #9A8C51",
"g. c #A59948",
"h. c #ACA050",
"j. c #8DA272",
"k. c #B1AB66",
"l. c #EADA79",
"z. c #05698A",
"x. c #006A91",
"c. c #1A728D",
"v. c #256C81",
"b. c #247089",
"n. c #2B728B",
"m. c #2C7B95",
"M. c #357F9A",
"N. c #38849D",
"B. c #3B8CAA",
"V. c #3A88A5",
"C. c #4191AC",
"Z. c #4394B1",
"A. c #5191A3",
"S. c #779CAC",
"D. c #69A9C2",
"F. c #76B3C4",
"G. c #818580",
"H. c #9B9B9F",
"J. c #9A898B",
"K. c #AB9E9D",
"L. c #B39B9C",
"P. c #81A5B3",
"I. c #A4A5A7",
"U. c #B0ADAE",
"Y. c #BFB4A0",
"T. c gray70",
"R. c #C0B498",
"E. c #C0B8B5",
"W. c #BEC393",
"Q. c #C7C589",
"!. c #D5CC8F",
"~. c #CED09C",
"^. c #EDDD85",
"/. c #C9CFA1",
"(. c #CBD1A1",
"). c #DAC3C4",
"_. c #E0C7C8",
"`. c #FFFBC8",
"'. c #FFFFD8",
"]. c #EBEBEB",
"[. c #E6E4E5",
"{. c #FBF6ED",
"}. c #FDF8E6",
"|. c #FFFEFE",
" X c None",
/* pixels */
" X X X X X X X X X X X X X X X X X X X X X X X X X X X X X X X X",
" X X X X X X X X X X X X X X X X X X X X X X X X X X X X X X X X",
" X X X X X X X X X X X Xk q. Xp.s *. X X X X X X X<. X X X X X X",
" X X X X X X X X X Xs.9.e.&.a.=.>.9.d. X X X X X Xr. X X X X X X",
" X X X X X X X X Xg J ~ v l.`.l.v ! J w  X X X X X,. X X X X X X",
" X X X X X X X XB.A E B.b.L / L v.B.z.A V.N. X X X X X X X X X X",
" X X X X X X X^ 6 S A.(.B.m.m.m.V./.A.P 6 ! C.D >. X X X X X X X",
" X X X X X X^ F F.D./.9 ^ C.C.Z.n.7 Q.D.F.K ! Z.b  X X X X X X X",
" X X X X XM.c._ R.T.C d { R R R { z 9 T.R.[ z.V.A  X X X X X X X",
" X X X XY W b.5 + $   `.I.| c | H.'.X + @ 1 n.Q W  X X X X X X X",
" X X X XY W I 6 U I h P.. I.}.T.@ S.x S E 3 I Q Y  X X X X X X X",
" X X X XY Q V > M n g.R = !.`.~., S h.b G % b Y W  X X X X X X X",
" X X X Xn T 7 % % b 7 !.f.q , q 1.!.C b < # 7 T V  X X X X X X X",
" X X X X Xt.0.. * M b k.}.{.{.}.}.k.b M * @ %.y. X X X X X X X X",
" X X X X Xq.-.` ].} m 8 v R.Q.Q.w.6 G ) ].{ $.y. X X X X X X X X",
" X X X X Xa c B U.I.p 2 5 1 1 1 1 1 @ [.U.H x j  X X X X X X X X",
" X X X X X Xx.<  .B *.o . V n V +   l G.| $ x. X X X X X X X X X",
" X X X X X X X   X9 t.q.l $ @ $ j 0.i., j.  <  X X X X X X X X X",
" X X X X X X X X X2 -.u.k $ 4.> j y.*.* ` t r  X X X X X X X X X",
" X X X X X X X X X2.= O - 2.6.6.= O = Z r +.O. X X X X X X X X X",
" X X X X X X X2.2.6.2 ] 2 7.3.8.4 ] & o X.:.@.=  X X X X X X X X",
" X X X X X2.2.2.2.2.6.4 7.2.3.3.8.3 (   i O.; [  X X X X X X X X",
" X X X X X2.2.2.2.2.2.6.2.2.2.2.3.8.J.' ..p t X. X X X X X X X X",
" X X X X X X X2.2. X2.2.2.2.2.2.3.3.K.].} B u X. X X X X X X X X",
" X X X X X X X X X X X X X X X X X X X|._.e y #. X X X X X X X X",
" X X X X X X X X X X X X X X X X X X X|._.e o :  X X X X X X X X",
" X X X X X X X X X X X X X X X X X X X X XL.0  X X X X X X X X X",
" X X X X X X X X X X X X X X X X X X X X X).0  X X X X X X X X X",
" X X X X X X X X X X X X X X X X X X X X X|.d  X X X X X X X X X",
" X X X X X X X X X X X X X X X X X X X X X X}  X X X X X X X X X",
" X X X X X X X X X X X X X X X X X X X X X X X X X X X X X X X X",
" X X X X X X X X X X X X X X X X X X X X X X X X X X X X X X X X"
};
