/* XPM */
static char *result[] = {
/* columns rows colors chars-per-pixel */
"16 16 3 1 ",
"  c #287838",
". c #408848",
"X c #489848",
/* pixels */
"X.  . .  . .  .X",
". .  .. .. ..  .",
"   . .. .. .  . ",
".  .  . .. .  . ",
".. ..  ..   . . ",
" .  .  ..  .. . ",
" .  .. .. .. .. ",
"    .. .  .. .  ",
" ..  .  . ..  . ",
"  .. . .. .  .. ",
"  ... ..  . ..  ",
".. .. .. .  ..  ",
" . . ..  .  ..  ",
" ..  ..  ..  .  ",
". .   .   .. . .",
"X.   .    .   .X"
};
