/* XPM */
static char *result[] = {
/* columns rows colors chars-per-pixel */
"32 32 3 1 ",
"  c #007B2F",
". c #159B3C",
"X c #148B40",
/* pixels */
".X  X X  X X  X..X  X X  X X  X.",
"X X  XX XX XX  XX X  XX XX XX  X",
"   X XX XX X  X    X XX XX X  X ",
"X  X  X XX X  X X  X  X XX X  X ",
"XX XX  XX   X X XX XX  XX   X X ",
" X  X  XX  XX X  X  X  XX  XX X ",
" X  XX XX XX XX  X  XX XX XX XX ",
"    XX X  XX X      XX X  XX X  ",
" XX  X  X XX  X  XX  X  X XX  X ",
"  XX X XX X  XX   XX X XX X  XX ",
"  XXX XX  X XX    XXX XX  X XX  ",
"XX XX XX X  XX  XX XX XX X  XX  ",
" X X XX  X  XX   X X XX  X  XX  ",
" XX  XX  XX  X   XX  XX  XX  X  ",
"X X   X   XX X XX X   X   XX X X",
".X   X    X   X..X   X    X   X.",
".X  X X  X X  X..X  X X  X X  X.",
"X X  XX XX XX  XX X  XX XX XX  X",
"   X XX XX X  X    X XX XX X  X ",
"X  X  X XX X  X X  X  X XX X  X ",
"XX XX  XX   X X XX XX  XX   X X ",
" X  X  XX  XX X  X  X  XX  XX X ",
" X  XX XX XX XX  X  XX XX XX XX ",
"    XX X  XX X      XX X  XX X  ",
" XX  X  X XX  X  XX  X  X XX  X ",
"  XX X XX X  XX   XX X XX X  XX ",
"  XXX XX  X XX    XXX XX  X XX  ",
"XX XX XX X  XX  XX XX XX X  XX  ",
" X X XX  X  XX   X X XX  X  XX  ",
" XX  XX  XX  X   XX  XX  XX  X  ",
"X X   X   XX X XX X   X   XX X X",
".X   X    X   X..X   X    X   X."
};
