/* XPM */
static char *result[] = {
/* columns rows colors chars-per-pixel */
"32 32 139 2 ",
"   c black",
".  c #231C1A",
"X  c #1C1C2A",
"o  c #1D1D2B",
"O  c #1F1F2A",
"+  c #1B1D2F",
"@  c #1D1E2C",
"#  c #2B2322",
"$  c #292224",
"%  c #2C2728",
"&  c #252635",
"*  c #2D2E39",
"=  c #34313B",
"-  c #3A3339",
";  c #3A333C",
":  c #3F393F",
">  c #433731",
",  c #453D3D",
"<  c #453D3F",
"1  c #463F3F",
"2  c #483E38",
"3  c #373440",
"4  c #313048",
"5  c #32334A",
"6  c #33324B",
"7  c #35364B",
"8  c #34334D",
"9  c #3C3B4F",
"0  c #373751",
"q  c #393952",
"w  c #423C42",
"e  c #423D43",
"r  c #453F48",
"t  c #4A4A48",
"y  c #574A42",
"u  c #5F524C",
"i  c #464352",
"p  c #414058",
"a  c #444158",
"s  c #45445E",
"d  c #4B475F",
"f  c #544D50",
"g  c #534C56",
"h  c #5E5453",
"j  c #585159",
"k  c #65564E",
"l  c #665552",
"z  c #625757",
"x  c #665A54",
"c  c #73655A",
"v  c #756060",
"b  c #706667",
"n  c #786364",
"m  c #7A6E68",
"M  c #60607E",
"N  c #787171",
"B  c #7B7670",
"V  c #7F7A74",
"C  c #897B73",
"Z  c #847878",
"A  c #90847C",
"S  c #616189",
"D  c #696993",
"F  c #878783",
"G  c #8E8383",
"H  c #928782",
"J  c #948585",
"K  c #9B8686",
"L  c #958985",
"P  c #978888",
"I  c #928E8A",
"U  c #998A8B",
"Y  c #9E8D8F",
"T  c #95958F",
"R  c #909092",
"E  c #9A9A9A",
"W  c #A48C89",
"Q  c #A79997",
"!  c #AA9A92",
"~  c #B2A5A5",
"^  c #B3A7A7",
"/  c #B6A5A6",
"(  c #B2A8A8",
")  c #B6AEAC",
"_  c #BAA8A9",
"`  c #BDABAA",
"'  c #BFAEAE",
"]  c #BBB5AF",
"[  c #BAB6AF",
"{  c #CEB6B5",
"}  c #C5B8B3",
"|  c #C7B9B5",
" . c #CDC5C4",
".. c #D6CBCB",
"X. c #D2CECE",
"o. c #DEC9C9",
"O. c #E0CBCB",
"+. c #E3CFD0",
"@. c #EBD4D5",
"#. c #EBD6D7",
"$. c #ECD7D8",
"%. c #E4DADA",
"&. c #E9D8D8",
"*. c #ECD9DA",
"=. c #EDDADB",
"-. c #EFDADB",
";. c #EDDCDD",
":. c #F0D9DA",
">. c #F4DDDE",
",. c #EFEBE9",
"<. c #F2E1E2",
"1. c #F5E0E1",
"2. c #F5E1E2",
"3. c #F4E2E3",
"4. c #F2E3E4",
"5. c #F1E4E4",
"6. c #F5EBEB",
"7. c #F6EBEA",
"8. c #F3EDED",
"9. c #F3EEED",
"0. c #F4EDED",
"q. c #FAEBEC",
"w. c #FFEBEC",
"e. c #FFEEEF",
"r. c #F5F0EF",
"t. c #F7F5F5",
"y. c #F7F6F6",
"u. c #FBF1F1",
"i. c #F9F5F5",
"p. c #F8F6F6",
"a. c #FFF5F5",
"s. c #FCF6F6",
"d. c #FDF6F6",
"f. c #FFF6F7",
"g. c #FFF7F7",
"h. c #FFFBFB",
"j. c #FFFCFC",
"k. c #FFFDFD",
"l. c None",
/* pixels */
"l.l.l.l.l.l.l.l.l.l.l.l.l.l.l.l.l.l.l.l.l.l.l.l.l.l.l.l.l.l.l.l.",
"l.l.l.l.l.l.l.l.l.l.l.l.l.l.l.l.l.l.l.l.l.l.l.l.l.l.l.l.l.l.l.l.",
"l.l.l.l.l.l.l.l.l.l.l.l.l.l.l.l.l.l.l.l.l.l.l.l.l.l.l.l.l.l.l.l.",
"l.l.l.l.l.l.l.l.l.l.l.l.l.l.l.l.l.l.l.l.l.l.l.l.l.l.l.l.l.l.l.l.",
"l.l.l.l.l.l.l.l.l.l.l.l.l.l.l.l.l.l.l.l.l.l.l.l.l.l.l.l.l.l.l.l.",
"l.l.l.l.l.l.l.l.l.l.l.l.l.l.l.l.l.l.l.l.l.l.l.l.l.l.l.l.l.l.l.l.",
"l.l.l.l.l.l.l.l.l.l.l.l.l.l.l.l.l.l.l.l.l.l.l.l.l.l.l.l.l.l.l.l.",
"l.l.l.l.l.l.l.l.l.l.l.l.l.l.l.l.l.l.l.l.l.l.l.l.l.l.l.l.l.l.l.l.",
"l.l.l.l.l.l.l.l.l.l.l.l.l.l.q 5 0 l.l.6 4 l.l.l.l.l.l.l.l.l.l.l.",
"l.l.l.l.l.l.l.l.l.l.l.l.l.a 2 m l.d - B T l.l.l.l.l.l.l.l.l.l.l.",
"l.l.l.l.l.l.l.l.l.l.l.l.l.> { w.g.F Q ( E V j l.l.l.l.l.l.l.l.l.",
"l.l.l.l.l.l.l.l.l.l.l.l.l.K 7.6.0.j.a.,   b ! X l.l.l.l.l.l.l.l.",
"l.l.l.l.l.l.l.l.l.l.l.l.l.x 9.s.*.@.>.Z 1 U C o l.l.l.l.l.l.l.l.",
"l.l.l.l.l.l.l.l.l.l.l.l.l.= P o.$.#.;.4.q.' < l.l.l.l.l.l.l.l.l.",
"l.l.l.l.l.l.l.l.l.l.l.l.l.l.% ` 3.<.8.p.k.I 9 l.l.l.l.l.l.l.l.l.",
"l.l.l.l.l.l.l.l.l.l.l.l.l.l.Y ,.y.t.5.*.=.1.l.7 l.l.l.l.l.l.l.l.",
"l.l.l.l.l.l.l.l.l.l.l.l.l.w &.i.^ _ +.-.$.e.A @ l.l.l.l.l.l.l.l.",
"l.l.l.l.l.l.l.l.l.l.l.l.: | r./ n # J :.2.O.u & l.l.l.l.l.l.l.l.",
"l.l.l.l.l.l.l.l.l.l.l.e } d.~ v . S i k W y 3 l.l.l.l.l.l.l.l.l.",
"l.l.l.l.l.l.l.l.l.l.r ] f...) $ D l.l.l.l.l.l.l.l.l.l.l.l.l.l.l.",
"l.l.l.l.l.l.l.l.l.g [ h.G z  .R M l.l.l.l.l.l.l.l.l.l.l.l.l.l.l.",
"l.l.l.l.l.l.l.l.+ c u.%.N   h l.l.l.l.l.l.l.l.l.l.l.l.l.l.l.l.l.",
"l.l.l.l.l.l.l.l.l.f l L X.t   8 l.l.l.l.l.l.l.l.l.l.l.l.l.l.l.l.",
"l.l.l.l.l.l.l.l.l.l.* ; H l.s l.l.l.l.l.l.l.l.l.l.l.l.l.l.l.l.l.",
"l.l.l.l.l.l.l.l.l.l.l.l.O p l.l.l.l.l.l.l.l.l.l.l.l.l.l.l.l.l.l.",
"l.l.l.l.l.l.l.l.l.l.l.l.l.l.l.l.l.l.l.l.l.l.l.l.l.l.l.l.l.l.l.l.",
"l.l.l.l.l.l.l.l.l.l.l.l.l.l.l.l.l.l.l.l.l.l.l.l.l.l.l.l.l.l.l.l.",
"l.l.l.l.l.l.l.l.l.l.l.l.l.l.l.l.l.l.l.l.l.l.l.l.l.l.l.l.l.l.l.l.",
"l.l.l.l.l.l.l.l.l.l.l.l.l.l.l.l.l.l.l.l.l.l.l.l.l.l.l.l.l.l.l.l.",
"l.l.l.l.l.l.l.l.l.l.l.l.l.l.l.l.l.l.l.l.l.l.l.l.l.l.l.l.l.l.l.l.",
"l.l.l.l.l.l.l.l.l.l.l.l.l.l.l.l.l.l.l.l.l.l.l.l.l.l.l.l.l.l.l.l.",
"l.l.l.l.l.l.l.l.l.l.l.l.l.l.l.l.l.l.l.l.l.l.l.l.l.l.l.l.l.l.l.l."
};
