/* XPM */
static char *result[] = {
/* columns rows colors chars-per-pixel */
"16 16 5 1 ",
"  c #282828",
". c #B02828",
"X c #E07070",
"o c #800080",
"O c #F8F8F8",
/* pixels */
"oooooooooooooooo",
"ooooooo  ooooooo",
"oooooo X. oooooo",
"ooooo X..X ooooo",
"oooo X...X  oooo",
"oooo X..X.O oooo",
"oooo ..XX.O oooo",
"oooo ..X..O oooo",
"oooo ...O.O oooo",
"oooo ..OX.O oooo",
"oooo ..X.OO oooo",
"oooo .X..OO oooo",
"ooooo OOOO ooooo",
"oooooo OO oooooo",
"ooooooo  ooooooo",
"oooooooooooooooo"
};
