/* XPM */
static char *result[] = {
/* columns rows colors chars-per-pixel */
"32 32 188 2 ",
"   c #000101",
".  c #0B0306",
"X  c #000D00",
"o  c #08070B",
"O  c #180007",
"+  c #001600",
"@  c #071909",
"#  c #191912",
"$  c #161004",
"%  c #23000A",
"&  c #2E0606",
"*  c #3C020D",
"=  c #24130E",
"-  c #380011",
";  c #2E1A17",
":  c #002500",
">  c #002C01",
",  c #0A2308",
"<  c #003300",
"1  c #003C00",
"2  c #00370B",
"3  c #133719",
"4  c #212102",
"5  c #363D00",
"6  c #3F3001",
"7  c #222A1D",
"8  c #2D2E10",
"9  c #352C23",
"0  c #353026",
"q  c #46060C",
"w  c #530004",
"e  c #4A0012",
"r  c #450016",
"t  c #5D0019",
"y  c #4E1611",
"u  c #720015",
"i  c #630E18",
"p  c #492707",
"a  c #552505",
"s  c #4F380B",
"d  c #6E3906",
"f  c #7C3707",
"g  c #6A3C13",
"h  c #7A331A",
"j  c #7A2700",
"k  c #430C28",
"l  c #004302",
"z  c #004E00",
"x  c #005200",
"c  c #005D00",
"v  c #1F5208",
"b  c #3F5000",
"n  c #006D00",
"m  c #006300",
"M  c #1D6200",
"N  c #007500",
"B  c #007C00",
"V  c #1F7E0E",
"C  c #007912",
"Z  c #227700",
"A  c #284528",
"S  c #205126",
"D  c #3C4836",
"F  c #465000",
"G  c #724B00",
"H  c #6A5D00",
"J  c #714611",
"K  c #576801",
"L  c #756700",
"P  c #524738",
"I  c #635745",
"U  c #7E6D55",
"Y  c #950001",
"T  c #8C0008",
"R  c #AB0000",
"E  c #AC001C",
"W  c #89380D",
"Q  c #943A08",
"!  c #8C0022",
"~  c #820021",
"^  c #D70402",
"/  c #E30000",
"(  c #FF0000",
")  c #884509",
"_  c #974601",
"`  c #865000",
"'  c #AB5C00",
"]  c #A4561A",
"[  c #9F6000",
"{  c #987200",
"}  c #BF6F00",
"|  c #A86B1A",
" . c #AC721B",
".. c #B37311",
"X. c #924B2B",
"o. c #8D7F22",
"O. c #AF7521",
"+. c #B37C25",
"@. c #AD733F",
"#. c #B66321",
"$. c #DD7310",
"%. c #807C54",
"&. c #A96F44",
"*. c #008400",
"=. c #008B00",
"-. c #009400",
";. c #009D00",
":. c #008912",
">. c #009119",
",. c #388E00",
"<. c #3E9400",
"1. c #288800",
"2. c #00A400",
"3. c #00AA00",
"4. c #00B200",
"5. c #00BA00",
"6. c #009729",
"7. c #37923A",
"8. c #00C200",
"9. c #00CB00",
"0. c #00D400",
"q. c #00DD00",
"w. c #00E200",
"e. c #00EB00",
"r. c #00F400",
"t. c #00FF00",
"y. c #00D738",
"u. c #00AE43",
"i. c #31AE4A",
"p. c #549256",
"a. c #648040",
"s. c #55A259",
"d. c #57BA63",
"f. c #63AF62",
"g. c #00FF66",
"h. c #7BC577",
"j. c #76ED7D",
"k. c #818400",
"l. c #B38608",
"z. c #B0B000",
"x. c #C99F00",
"c. c #D99B00",
"v. c #CEB000",
"b. c #D9BE00",
"n. c #F1A900",
"m. c #EDB500",
"M. c #F2BB00",
"N. c #BFE600",
"B. c #D0CF00",
"V. c #D0D600",
"C. c #E6C400",
"Z. c #F5C000",
"A. c gold",
"S. c #C7FF00",
"D. c #CCFF00",
"F. c #DCE900",
"G. c #E4E100",
"H. c #FFE900",
"J. c #E1FF00",
"K. c #FEFD00",
"L. c #F8F700",
"P. c #978E56",
"I. c #9A9471",
"U. c #B4B270",
"Y. c #D18D4D",
"T. c #D2AB7B",
"R. c #E9A068",
"E. c #80E77E",
"W. c #C6AE86",
"Q. c #E8BF91",
"!. c #E8AA81",
"~. c #98F891",
"^. c #ACFFA3",
"/. c #B1FFA6",
"(. c #C6CA91",
"). c #EECB8E",
"_. c #F1CA8D",
"`. c #F1C699",
"'. c #EAC193",
"]. c #CBD4A0",
"[. c #F6D6A5",
"{. c #EEDBA9",
"}. c #DBF5B9",
"|. c #FFF1BE",
" X c #F3F3B9",
".X c #FFFFD4",
"XX c #FFFFE3",
"oX c None",
/* pixels */
"oXoXoXoXoXoXoXoXoXoXoXoXoXoXoXoXoXoXoXoXoXoXoXoXoXoXoXoXoXoXoXoX",
"oXoXoXoXoXoXoXoXoXoXoXoXoXoX) | +.O.+. .W { oXoXoXoXoXoXoXoXoXoX",
"oXoXoXoXoXoXoXoXoXoXoXoXoXi $.n.M.M.M.m.c.m.L.v.oXoXoXoXoXoXoXoX",
"oXoXoXoXoXoXoXoXoXoXoXoX: K V.D.D.S.S.D.D.J.K.B.l.oXoXoXoXoXoXoX",
"oXoXoXoXoXoXoXoXoXoX  > 9.r.t.t.t.t.t.t.t.t.K.K.G.l.X.oXoXoXoXoX",
"oXoXoXoXoXoXoXoXoX  c 4.t.t.t.t.t.t.t.t.t.t.t.V.A.H.x.f oXoXoXoX",
"oXoXoXoXoXoXoXoX+ > 0.t.t.t.t.t.t.t.t.t.t.t.t.9.x.V.z.) oXoXoXoX",
"oXoXoXoXoXoXoX  1 2.e.t.t.t.t.t.t.t.t.t.t.t.t.w.=., p O.oXoXoXoX",
"oXoXoXoXoXoXoXO < 8.t.t.t.t.t.t.t.t.t.t.t.t.t.e.*.. k oXoXoXoXoX",
"oXoXoXoXoXoXoX7 l 4.q.r.t.t.t.t.t.t.t.t.t.t.r.0.=.: P oXoXoXoXoX",
"oXoXoXoXO.R.U.:.=.3.2.8.t.t.t.t.t.t.t.t.t.e.4.3.2.B 7.!.Y. .oXoX",
"oXoXf @._.{.(.>.=.2.;.8.t.t.t.t.t.t.t.t.t.e.3.2.2.*.7.[.[.).oXoX",
"oXoXW &.'.{.U.:.=.3.;.4.w.t.t.t.t.t.t.t.r.0.2.2.2.*.7.).[.'.oXoX",
"oXoXoXoX) #.o.B ;.3.=.*.;.q.t.t.t.t.t.t.8.-.*.-.2.=.1.+.] W oXoX",
"oXoXoXoXoX_ ) s n -.1 1 -.5.9.t.t.t.e.8.5.n > c -.v g _ _ oXoXoX",
"oXoXoXoXoXa d $.k.c . + -.4.2.0.e.e.8.;.5.n   @ V l.' a oXoXoXoX",
"oXoXoXoXoX  5 F.C.d % > -.5.2.3.2.2.3.3.5.N   - [ H.z.  oXoXoXoX",
"oXoXoXoXoXoXoXF { #.y + *.4.3.3.2.2.2.3.3.m   h ..L 5 oXoXoXoXoX",
"oXoXoXoXoXoXoX  = J &   l *.4.3.3.2.5.;.n >   p J o oXoXoXoXoXoX",
"oXoXoXoXoXoXoXoXoX        x 3.5.3.3.5.-.>       o oXoXoXoXoXoXoX",
"oXoXoXoXoXoXoX  A d.6.<   > 2.3.3.3.4.*.    x u.s.@ oXoXoXoXoXoX",
"oXoXoXoXoXoXX S h./.y.n l < x =.5.4.B l < z =.g./.p.3 oXoXoXoXoX",
"oXoXoXoXoXo A E./.j.6.*.5.z   n 8.4.1   *.3.B i.~.^.f.$ oXoXoXoX",
"oXoXoXoXo U ].}.I.7 i K 5.c   c 3.2.>   -.2.g ; D (.}.W.P   oXoX",
"oXoXoXoX  W..X.Xa.> M <.Z s * , l 2 = q b 1.,.l 2 W..X.XU   oXoX",
"oXoXoXoX. I.{.R.U *.t.e.H Q G 4 X + p ` W ,.t.9.C P.Q.[.I   oXoX",
"oXoXoXoXoX; 0 9 @ > q.t.e.q.q.0.9.9.0.w.0.t.t.-.+ # 9 0 # oXoXoX",
"oXoXoXoXoXoX    O e c 2.r.t.t.t.t.t.t.t.t.0.-.5 e       oXoXoXoX",
"oXoXoXoXoXoXoX  e ! * $ N 9.e.e.e.e.e.q.5.z O t ~ %   oXoXoXoXoX",
"oXoXoXoXoXoXoXoX. % t E / ( ^ p > > j ( ( ^ ! r O oXoXoXoXoXoXoX",
"oXoXoXoXoXoXoXoXoX  - u Y R Y &     w R R T t O oXoXoXoXoXoXoXoX",
"oXoXoXoXoXoXoXoXoXoX          oXoXoX        . oXoXoXoXoXoXoXoXoX"
};
