/* XPM */
static char *result[] = {
/* columns rows colors chars-per-pixel */
"32 32 181 2 ",
"   c #000000",
".  c #010C01",
"X  c #0A0604",
"o  c #021300",
"O  c #001C00",
"+  c #141300",
"@  c #100903",
"#  c #290208",
"$  c #320000",
"%  c #2A0011",
"&  c #2C180B",
"*  c #002200",
"=  c #002C03",
"-  c #002D0D",
";  c #1B2606",
":  c #023200",
">  c #003A00",
",  c #342815",
"<  c #37192A",
"1  c #153320",
"2  c #33302B",
"3  c #4C0803",
"4  c #420012",
"5  c #530004",
"6  c #690013",
"7  c #542804",
"8  c #503D1E",
"9  c #7B3A03",
"0  c #6A340A",
"q  c #4A2B2D",
"w  c #6D2E20",
"e  c #763D28",
"r  c #004201",
"t  c #004C00",
"y  c #005703",
"u  c #164700",
"i  c #006501",
"p  c #006A00",
"a  c #007300",
"s  c #007D00",
"d  c #3E4135",
"f  c #347C29",
"g  c #4B4500",
"h  c #615800",
"j  c #78530F",
"k  c #594232",
"l  c #664D23",
"z  c #3C7B47",
"x  c #785A4B",
"c  c #55734E",
"v  c #9B0000",
"b  c #A20000",
"n  c #AC0000",
"m  c #863E06",
"M  c #8F0024",
"N  c #9C0027",
"B  c red",
"V  c #C70028",
"C  c #9C5817",
"Z  c #874714",
"A  c #A25A1E",
"S  c #817A00",
"D  c #9F6108",
"F  c #AD760E",
"G  c #8C4632",
"H  c #964733",
"J  c #A25927",
"K  c #877A3F",
"L  c #A9692F",
"P  c #B17127",
"I  c #C17900",
"U  c #C26D28",
"Y  c #875C5C",
"T  c #AB5B4C",
"R  c #9A7753",
"E  c #A26041",
"W  c #A87948",
"Q  c #987A65",
"!  c #AD7262",
"~  c #008500",
"^  c #008B00",
"/  c #009300",
"(  c #009B00",
")  c #2A8800",
"_  c #00A300",
"`  c #00AB00",
"'  c #00B300",
"]  c #00BB00",
"[  c #00AF26",
"{  c #4F8D00",
"}  c #7F8100",
"|  c #00CC00",
" . c #00DC00",
".. c #31D900",
"X. c #00E200",
"o. c #00EB00",
"O. c #00F500",
"+. c #00FF00",
"@. c #21F900",
"#. c #60E400",
"$. c #3F824A",
"%. c #B78800",
"&. c #BAB400",
"*. c #968134",
"=. c #CA9800",
"-. c #D39700",
";. c #D29F00",
":. c #CF911A",
">. c #C6A200",
",. c #CDAC00",
"<. c #D2AA00",
"1. c #D6BA00",
"2. c #CEB50B",
"3. c #E4BA00",
"4. c #E5B200",
"5. c #EAA214",
"6. c #D88C22",
"7. c #E0912E",
"8. c #FF9824",
"9. c #CDAA20",
"0. c #BED000",
"q. c #90FF00",
"w. c #AFEE00",
"e. c #BAFD00",
"r. c #CFCC00",
"t. c #D2D100",
"y. c #FFDE00",
"u. c #F4D700",
"i. c #D8EE00",
"p. c #E8E400",
"a. c #EFEA00",
"s. c #F3E300",
"d. c #FBED00",
"f. c #EFF200",
"g. c #F5F600",
"h. c #F6FD00",
"j. c #FEFF00",
"k. c #FCF200",
"l. c #BE844F",
"z. c #A99C5F",
"x. c #B99579",
"c. c #9DBB64",
"v. c #C48C5B",
"b. c #CF9D60",
"n. c #D49775",
"m. c #CBA374",
"M. c #D6AC75",
"N. c #A6D77B",
"B. c #EFCF5A",
"V. c #4C3CAB",
"C. c #6466A9",
"Z. c #313DFF",
"A. c #4649F0",
"S. c #76FF84",
"D. c #B3918D",
"F. c #BAA785",
"G. c #B6B7AA",
"H. c #CFB095",
"J. c #D6A984",
"K. c #B2CD8C",
"L. c #84FF8C",
"P. c #9BFD8F",
"I. c #9FFF9D",
"U. c #AEFFA6",
"Y. c #B5FFA7",
"T. c #EDC48A",
"R. c #FFD081",
"E. c #FAC499",
"W. c #FFD29C",
"Q. c #FEDAA7",
"!. c #FDD3B1",
"~. c #FDE5AA",
"^. c #FFE8AD",
"/. c #FFEBB0",
"(. c #97AFFF",
"). c #FFEEC8",
"_. c #FCFBC6",
"`. c #FFFFD8",
"'. c #FFFEE7",
"]. c white",
"[. c None",
/* pixels */
"[.[.[.[.[.[.[.[.[.[.[.[.[.[.[.[.[.[.[.[.[.[.[.[.[.[.[.[.[.[.[.[.",
"[.[.[.[.[.[.[.[.[.:.A j ^ X.+.+.+.+.O.` [.[.[.[.[.[.[.[.[.[.[.[.",
"[.[.[.[.[.[.[.L 7.3.1.&. .O.+.+.+.+.+. .' ( [.[.[.[.[.[.[.[.[.[.",
"[.[.[.[.[.[.F =.4.k.j.g.O.+.+.+.+.+.+.+. .' ( [.[.[.[.[.[.[.[.[.",
"[.[.[.[.[.L ;.j.g.j.s.5.8...+.+.+.+.+.+.+.X.( ~ [.[.[.[.[.[.[.[.",
"[.[.[.[.*.1.s.j.y.<.>.s.y.O.+.+.+.+.+.+. .' _ ( ^ [.[.[.[.[.[.[.",
"[.[.[.[.A t.j.u.F T 9.j.j.q.+.+.+.+.+.X.' ( ` ` ^ s [.[.[.[.[.[.",
"[.[.[.[.j ,.d.6.m ! B.f.h.j.e.+.+.+.o._ _ ` ` ` ^ s [.[.[.[.[.[.",
"[.[.[.[.[.F F C v.J.b.%.p.j.w.' ] ' ' ` ` ` ` ` ` / s [.[.[.[.[.",
"[.[.[.[.[.[.Z & M.^.E.v.p.j.i.{ ( _ _ ` ( / ( ` ` _ ^ [.[.[.[.[.",
"[.[.[.[.[.[.[.  W M.H.T.k.g.4.L ^ _ _ ( ^ i i ( ' ^ i [.[.[.[.[.",
"[.[.[.[.[.[.[.  9 $ 2 ~.j.r.J m p ( _ ~ ^ > . a ' a X [.[.[.[.[.",
"[.[.[.[.[.[., Q V.C.G.~.2.-.U m R c.N.K.[ >   s ] p   [.[.[.[.[.",
"[.[.[.[.[.  l E.Z.(.].Q.E -.<.7 n.).).W.f O . t _ a   [.[.[.[.[.",
"[.[.[.[.[.  8 J.A.(.'.Q.G ,.0.  F._.T.F & [.[.  ~ s   [.[.[.[.[.",
"[.[.[.[.[.[.[.2 D./.).Q.G ,.0.  x.R.L .   [.[.  p p   [.[.[.[.[.",
"[.[.[.[.[.[.[.  l M.^.E.G 1.t.X q l 7 Z S } [.[.= =   [.[.[.[.[.",
"[.[.[.[.[.[.[.[.  k m.z.w >.r.  o o ; :.j.[.[.[.    [.[.[.[.[.[.",
"[.[.[.[.[.[.[.[.[.X - s X D ;.  s ` y X [.[.[.[.[.[.[.[.[.[.[.[.",
"[.[.[.[.[.[.[.[.[.= s ( ^ u 3 3 : ~ ~   [.[.[.[.[.[.[.[.[.[.[.[.",
"[.[.[.[.[.[.[.[.g ( | ` / y 2 *.% t _   [.[.[.[.[.[.[.[.[.[.[.[.",
"[.[.[.[.[.[.[.+ s.#._ ( . c Y.L.2 r / . [.[.[.[.[.[.[.[.[.[.[.[.",
"[.[.[.[.[.[.[.+ d.<.0 0   $.U.L.1 $ h ~ = [.[.[.[.[.[.[.[.[.[.[.",
"[.[.[.[.[.[.[.+ @...) ) . z I.S.1 ; ` | >   [.[.[.[.[.[.[.[.[.[.",
"[.[.[.[.[.[.[.o ] +.+.+.O c U.P.< s +.( * [.[.[.[.[.[.[.[.[.[.[.",
"[.[.[.[.[.[.[.[.o ` +.+.O Y _.^.< ~ +.O [.[.[.[.[.[.[.[.[.[.[.[.",
"[.[.[.[.[.[.[.[.[.: p i . Q `.W.q = y [.[.[.[.[.[.[.[.[.[.[.[.[.",
"[.[.[.[.[.[.[.[.[.# 3 % % x F.R &     [.[.[.[.[.[.[.[.[.[.[.[.[.",
"[.[.[.[.[.[.[.[.  b B M N 4         [.[.[.[.[.[.[.[.[.[.[.[.[.[.",
"[.[.[.[.[.[.[.[.  n B B V 4     [.[.[.[.[.[.[.[.[.[.[.[.[.[.[.[.",
"[.[.[.[.[.[.[.[.[.5 b v 6 %     [.[.[.[.[.[.[.[.[.[.[.[.[.[.[.[.",
"[.[.[.[.[.[.[.[.[.        [.[.[.[.[.[.[.[.[.[.[.[.[.[.[.[.[.[.[."
};
