/* XPM */
static char *result[] = {
/* columns rows colors chars-per-pixel */
"32 32 202 2 ",
"   c #000000",
".  c #0B0403",
"X  c #090B04",
"o  c #140204",
"O  c #1A0706",
"+  c #001500",
"@  c #001C02",
"#  c #0D1B0E",
"$  c #151307",
"%  c #0F1D10",
"&  c #240204",
"*  c #3A0006",
"=  c #330011",
"-  c #351A0B",
";  c #002200",
":  c #002900",
">  c #002208",
",  c #003200",
"<  c #142D00",
"1  c #2A231B",
"2  c #342600",
"3  c #173F21",
"4  c #2E3425",
"5  c #5D1E00",
"6  c #540019",
"7  c #530004",
"8  c #6F0015",
"9  c #70001D",
"0  c #7D090C",
"q  c #52320F",
"w  c #762705",
"e  c #742313",
"r  c #6D3408",
"t  c #553328",
"y  c #632D39",
"u  c #004500",
"i  c #005200",
"p  c #2B4100",
"a  c #006B00",
"s  c #007500",
"d  c #007B00",
"f  c #097E00",
"g  c #007E12",
"h  c #206B00",
"j  c #1E5126",
"k  c #2E502D",
"l  c #4C4B08",
"z  c #714D0F",
"x  c #5B6F00",
"c  c #587C00",
"v  c #727000",
"b  c #605234",
"n  c #5C672C",
"m  c #6B3F51",
"M  c #522F74",
"N  c #545F42",
"B  c #6C5B44",
"V  c #4A6545",
"C  c #746350",
"Z  c #4A506C",
"A  c #596479",
"S  c #950000",
"D  c #9B0000",
"F  c #890006",
"G  c #A70000",
"H  c #B50000",
"J  c #A1001F",
"K  c #853A08",
"L  c #802F0A",
"P  c #830023",
"I  c #8C3E21",
"U  c #DC0014",
"Y  c #EE0000",
"T  c #FF0000",
"R  c #894804",
"E  c #8D5100",
"W  c #965000",
"Q  c #904C12",
"!  c #A55002",
"~  c #957514",
"^  c #A66E00",
"/  c #AC7900",
"(  c #AE731E",
")  c #B46C07",
"_  c #8F502F",
"`  c #927632",
"'  c #A66935",
"]  c #B16F37",
"[  c #BB7730",
"{  c #C57B19",
"}  c #C0651D",
"|  c #976E4F",
" . c #AC6F51",
".. c #B27552",
"X. c #008300",
"o. c #008F00",
"O. c #009100",
"+. c #009E00",
"@. c #329C00",
"#. c #00A500",
"$. c #00AA00",
"%. c #00B900",
"&. c #00B400",
"*. c #27A100",
"=. c #00B63F",
"-. c #4A8500",
";. c #00C400",
":. c #00CC00",
">. c #00DB00",
",. c #00D700",
"<. c #00E200",
"1. c #00E900",
"2. c #00F400",
"3. c #00FF00",
"4. c #50964E",
"5. c #5BC865",
"6. c #61C971",
"7. c #53EA6B",
"8. c #AE8C00",
"9. c #B78800",
"0. c #BB9700",
"q. c #8AB800",
"w. c #B5B300",
"e. c #B88136",
"r. c #C48C00",
"t. c #C29600",
"y. c #CF901D",
"u. c #CB8116",
"i. c #D0AD00",
"p. c #EAAA04",
"a. c #F7A604",
"s. c #FDB800",
"d. c #D28A28",
"f. c #97C200",
"g. c #DCC700",
"h. c #D9C600",
"j. c #E4CA00",
"k. c #F2C800",
"l. c #E9D300",
"z. c #F8D700",
"x. c #CEE100",
"c. c #D4FE00",
"v. c #DAFF00",
"b. c #EDE900",
"n. c #FDE300",
"m. c #F3E800",
"M. c #EBF500",
"N. c #F3F400",
"B. c #F6FE00",
"V. c #FEFE00",
"C. c #FBF700",
"Z. c #BD8758",
"A. c #B5904A",
"S. c #87A44A",
"D. c #81946C",
"F. c #BDA766",
"G. c #C79352",
"H. c #E1924D",
"J. c #D5A35B",
"K. c #CA9668",
"L. c #DBAC6D",
"P. c #C5B074",
"I. c #E3B37A",
"U. c #F5AD6C",
"Y. c #97F179",
"T. c #3D2B9F",
"R. c #676290",
"E. c #2934FF",
"W. c #444DFF",
"Q. c #4464FF",
"!. c #7C8DFF",
"~. c #A6A780",
"^. c #DBBF8C",
"/. c #E2B483",
"(. c #E6BC8B",
"). c #B6D19C",
"_. c #86F78D",
"`. c #ABFFA3",
"'. c #D7CB95",
"]. c #F6CF9D",
"[. c #F6C895",
"{. c #FCC993",
"}. c #FFCDA4",
"|. c #F6CFA3",
" X c #F9D7A5",
".X c #E6CAA1",
"XX c #D5F6A7",
"oX c #FFE2AE",
"OX c #FEE5B2",
"+X c #FFEFBD",
"@X c #CEBBC9",
"#X c #CDBFEA",
"$X c #FFF4C2",
"%X c #FFFFCB",
"&X c #FEF6CB",
"*X c #FDF8DE",
"=X c #FFE7C3",
"-X c #CDCCF0",
";X c #D0E5FF",
":X c white",
">X c #E9E3E6",
",X c None",
/* pixels */
",X,X,X,X,X,X,X,X,X,X,X,X,X,X,X,X,X,X,X,X,X,X,X,X,X,X,X,X,X,X,X,X",
",X,X,X,X,X,X,X,X,X,X,X,X+ s :.%.%.;.#.: ,X,X,X,X,X,X,X,X,X,X,X,X",
",X,X,X,X,X,X,X,X,X,X,X  s <.3.3.3.3.2.$.:   ,X,X,X,X,X,X,X,X,X,X",
",X,X,X,X,X,X,X,X,X,X+ s ,.3.3.3.3.3.3.2.#.,   ,X,X,X,X,X,X,X,X,X",
",X,X,X,X,X,X,X,X,X; s 1.3.3.3.3.3.3.3.3.3.#., ,X,X,X,X,X,X,X,X,X",
",X,X,X,X,X,X,X,X  a 1.3.3.3.3.3.3.3.3.3.3.2.#.+ ,X,X,X,X,X,X,X,X",
",X,X,X,X,X,X,X,X  #.3.( x.v.c.c.c.c.c.v.t.&.2.+ ,X,X,X,X,X,X,X,X",
",X,X,X,X,X,X,X  a +.q.k.C.V.C.V.C.V.V.V.z.w.*.X.; ,X,X,X,X,X,X,X",
",X,X,X,X,X,X| O X.~ a.B.m.m.B.B.B.N.z.g.V.z.r.+.< t ,X,X,X,X,X,X",
",X,X,X,X( L.K.K L { z.b.p.k.B.B.B.z.d.[ h.V.b.W e ] /.e.,X,X,X,X",
",X,X,X,XR /.+X[.] j.b.9.l.C.B.B.V.g.] K.A.i.B./ K.OXoX_ ,X,X,X,X",
",X,X,X,X,X' ^.}._ 8.i.d.M.V.V.z.0./ K.].Z.t.z.( /.|.Z.Q ,X,X,X,X",
",X,X,X,X,X,X_ G.^ R ] s.z.m.l.u._  . X=XL.[ { t.G. .w ,X,X,X,X,X",
",X,X,X,X,X,X,XE N.8.Q p.p.y.Q K G.[.OXOX[. .R M.0.e ,X,X,X,X,X,X",
",X,X,X,X,X,X,X2 M.j.r o ) ) _ Z.[.oX/.( - q 9.V.-.* ,X,X,X,X,X,X",
",X,X,X,X,X,X,X$ l.p.| A R.y R [.$XL._ M Z C ) n.v . ,X,X,X,X,X,X",
",X,X,X,X,X,X,X$ ( R | :XQ.T.[ OX$XJ.m E.;X.X5 u.q   ,X,X,X,X,X,X",
",X,X,X,X,X,X,X,X. . b OXW.!.*XOX X&X-XE.#XP.. o ,X,X,X,X,X,X,X,X",
",X,X,X,X,X,X,X,X,X  - J.@X>X%XOXoX=X*X-X(.z   ,X,X,X,X,X,X,X,X,X",
",X,X,X,X,X,X,X,X,Xj n ! H.{.}.}.}.}.{.U.[ z k ,X,X,X,X,X,X,X,X,X",
",X,X,X,X,X,X,X,X# 6.Y.r 5 ` P.F.F.P.A.z 5 4._.3 X ,X,X,X,X,X,X,X",
",X,X,X,X,X,X,XX 5.`.7.s o.#.&.$.$.$.#.+.f =.`._.j   ,X,X,X,X,X,X",
",X,X,X,X,X,X4 ~.XXD.4 l #.;.$.+.#.#.%.;.h t n XX).C   ,X,X,X,X,X",
",X,X,X,X,X  C %X%XN ; -.f g O.;.;.#.d d -.p > |.*XP.  ,X,X,X,X,X",
",X,X,X,X,X  t /. X4.$.3.x 0 ^ C.V.i.e K ,.1.g '.|.|   ,X,X,X,X,X",
",X,X,X,X,X,XX 1 1 % a 3.3.$.@.V.V.q.o.<.3.;.@ 1 1 $ ,X,X,X,X,X,X",
",X,X,X,X,X,X,X,X,X  @ d ,.3.3.3.3.3.3.3.+.u   ,X,X,X,X,X,X,X,X,X",
",X,X,X,X,X,X,X,X,X& 7 O i &.:.:.;.:.;.X.X = * ,X,X,X,X,X,X,X,X,X",
",X,X,X,X,X,X,X,X  G T P O               6 U Y & ,X,X,X,X,X,X,X,X",
",X,X,X,X,X,X,X,X  H T T J =   ,X,X  o 9 U T T & ,X,X,X,X,X,X,X,X",
",X,X,X,X,X,X,X,X,X7 S S 8 = ,X,X,X,X. 6 F D 0 o ,X,X,X,X,X,X,X,X",
",X,X,X,X,X,X,X,X,X        ,X,X,X,X,X,X        ,X,X,X,X,X,X,X,X,X"
};
