/* XPM */
static char *result[] = {
/* columns rows colors chars-per-pixel */
"32 32 8 1 ",
"  c #282828",
". c #285830",
"X c #605030",
"o c #286840",
"O c #407840",
"+ c #887040",
"@ c #489848",
"# c #A89060",
/* pixels */
"@@@@@@@@OOOOO.    .OOOOO@@@@@@@@",
"@@@@@OOOOOOO. X##X .OOOOOOO@@@@@",
"@OOOOOOOOOO. X####X .OOOOOOOOOO@",
"Oo.    .O.  XXXXXXXX  .O.    .oO",
"o. ++++   +##########+   ++++ .o",
"o. ++##XX+##++++++++##+XX##++ .o",
"o. X++XX###++######++###XX++X .o",
"@o  XXX##+++##++++##+++##XXX  o@",
"@o.  X##++#XX++++++XX#++##X  .o@",
"@@o. ##++##+XX+##+XX+##++## .o@@",
"@@@. #++##+++XX##XX+++##++# .@@@",
"@@@  #++##++#X XX X#++##++#  @@@",
"@@ X #++##++#X    X#++##++# X @@",
"@ +X #++##++#X    X#++##++# X+ @",
" +#X #++##++#X XX X#++##++# X#+ ",
" +#X #++###+X X##X X+###++# X#+ ",
" X+XX #++##XX++##++XX##++# XX+X ",
".  XX ##++XX##++++##XX++## XX  .",
".o. XX ##++++##++##++++## XX .o.",
"@o.. X  ####++####++####  X ..o@",
"@@oo.  X XX##++++++##XX X  .oo@@",
"@@@o. ++X XX##++++##XX X++ .o@@@",
"@@@@  +++X XXX####XXX X+++  @@@@",
"@@@. XX++XX XXXXXXXX XX++XX .@@@",
"@@@ ++XXXXX XX    XX XXXXX++ @@@",
"@@ ++++X X  X XXXX X  X X++++ @@",
"@@ ++++X  .  XX++XX  .  X++++ @@",
"@@ ++X X ... XX++XX ... X X++ @@",
"@@ X .. ..o.. XXXX ..o.. .. X @@",
"@@..o.o.oo@oo X++X oo@oo.o.o..@@",
"@@@@@o@o@@@@@. XX .@@@@@o@o@@@@@",
"@@@@@@@@@@@@@@.  .@@@@@@@@@@@@@@"
};
