/* XPM */
static char *result[] = {
/* columns rows colors chars-per-pixel */
"32 32 180 2 ",
"   c #000100",
".  c #0B0104",
"X  c #000B00",
"o  c #09070A",
"O  c #100004",
"+  c #001B03",
"@  c #001000",
"#  c #0D0E11",
"$  c #3D1C00",
"%  c #2F0011",
"&  c #2E1502",
"*  c #002501",
"=  c #002B00",
"-  c #003400",
";  c #003800",
":  c #16241E",
">  c #2E2009",
",  c #342F26",
"<  c #460002",
"1  c #4C1A00",
"2  c #570019",
"3  c #53110C",
"4  c #790000",
"5  c #660008",
"6  c #552510",
"7  c #662300",
"8  c #73360D",
"9  c #783827",
"0  c #603A23",
"q  c #004000",
"w  c #005400",
"e  c #00561D",
"r  c #006600",
"t  c #007200",
"y  c #007E00",
"u  c #2A7800",
"i  c #475D00",
"p  c #714A19",
"a  c #526100",
"s  c #7E6400",
"d  c #617A00",
"f  c #737B00",
"g  c #664535",
"h  c #767536",
"j  c #665945",
"k  c #AA0003",
"l  c #B00000",
"z  c #802E00",
"x  c #803200",
"c  c #913300",
"v  c #C90018",
"b  c #ED0000",
"n  c red",
"m  c #D3022B",
"M  c #8E4700",
"N  c #904A00",
"B  c #834012",
"V  c #8B530C",
"C  c #A45215",
"Z  c #BA7D00",
"A  c #A66915",
"S  c #A56600",
"D  c #935424",
"F  c #A35138",
"G  c #9A603F",
"H  c #946D25",
"J  c #AE6F2E",
"K  c #D87E32",
"L  c #826043",
"P  c #936C50",
"I  c #AE7851",
"U  c #BE7B66",
"Y  c #C27E53",
"T  c #008B00",
"R  c #009300",
"E  c #009D00",
"W  c #00A300",
"Q  c #00AB00",
"!  c #00B200",
"~  c #00BD00",
"^  c #00B71F",
"/  c #649130",
"(  c #5AA739",
")  c #6DA43A",
"_  c #00C400",
"`  c #00C900",
"'  c #00D800",
"]  c #36C700",
"[  c #00E100",
"{  c #00EB00",
"}  c #00F200",
"|  c #00FF00",
" . c #26FE00",
".. c #33FF00",
"X. c #6FC200",
"o. c #40FF00",
"O. c #60A844",
"+. c #7AF37B",
"@. c #908700",
"#. c #909700",
"$. c #BB8705",
"%. c #BC9300",
"&. c #BB801B",
"*. c #B7802B",
"=. c #CE8B00",
"-. c #C79B00",
";. c #FF9D00",
":. c #E09A19",
">. c #C8AB00",
",. c #F0A200",
"<. c #EDBD00",
"1. c #F0B300",
"2. c #EDA415",
"3. c #E69C21",
"4. c #98FF00",
"5. c #C4CD00",
"6. c #F9C800",
"7. c #E6D500",
"8. c #F6DE00",
"9. c #D9F800",
"0. c #EBEA00",
"q. c #FFEA00",
"w. c #F7E600",
"e. c #EFF500",
"r. c #F3F300",
"t. c #FFF300",
"y. c #F5FD00",
"u. c #FCFE00",
"i. c #B68753",
"p. c #BD8163",
"a. c #C0814D",
"s. c #CF8D51",
"d. c #CE8B5D",
"f. c #D5A25E",
"g. c #C78F60",
"h. c #CE9A6F",
"j. c #D4A16B",
"k. c #D8A978",
"l. c #E3B16E",
"z. c #89CB5A",
"x. c #92D96E",
"c. c #FDCD49",
"v. c #F1C277",
"b. c #E0F17E",
"n. c #402798",
"m. c #273FFF",
"M. c #282BF4",
"N. c #505CDD",
"B. c #6369F4",
"V. c #76F984",
"C. c #7C8EFF",
"Z. c #9481A6",
"A. c #DEAE80",
"S. c #DAB885",
"D. c #FFBD9B",
"F. c #E2B883",
"G. c #93FF9A",
"H. c #9FFFA4",
"J. c #EBCF9F",
"K. c #F7C99A",
"L. c #F6C183",
"P. c #D1E696",
"I. c #EAE89B",
"U. c #C2C1BD",
"Y. c #F9CAA5",
"T. c #F8D6A6",
"R. c #FFE2AD",
"E. c #FFE1A7",
"W. c #FDE5B2",
"Q. c #FFEEBA",
"!. c #FFF2BD",
"~. c #92A5CD",
"^. c #D1B2C4",
"/. c #FFECC3",
"(. c #FFF3C3",
"). c #FFFDCC",
"_. c #D5E1FF",
"`. c #FFFFE8",
"'. c #EAF0FF",
"]. c None",
/* pixels */
"].].].].].].].].].].].].].  R Q Q ~ - ].].].].].].].].].].].].].",
"].].].].].].].].].].].].  w R W E W y @ ].].].].].].].].].].].].",
"].].].].].].].].].].].].* _ ` _ _ _ [ r X ].].].].].].].].].].].",
"].].].].].].].].].].].. E | | | | | | [ q ].].].].].].].].].].].",
"].].].].].].].].].].  t | | | | | | | | ~ = ].].].].].].].].].].",
"].].].].].].].].].].  { ~  . . . . ...] } w ].].].].].].].].].].",
"].].].].].].].].].].* } $.q.u.u.u.u.u.;.[ T X ].].].].].].].].].",
"].].].].].].].].].  W H 0.y.y.y.y.y.u.u.c.^ ; ].].].].].].].].].",
"].].].].].].].J k.1 i K y.u.<.w.y.u.>.0.t.@.1 P f.].].].].].].].",
"].].].].].].].A T.a.C 6.u.8.<.r.u.7.i.-.e.-.F F.j.N ].].].].].].",
"].].].].].].].B T.Q.J 0.e.3.r.y.u.$.h.U 7.>.A.(.i.].].].].].].].",
"].].].].].].].].D (.8 1.$.3.r.y.u.%.g.T.c.Z k.g.8 ].].].].].].].",
"].].].].].].].].].j >.C J 2.y.u.q.$.F.(.p.>.@.6 ].].].].].].].].",
"].].].].].].].].].  u.V p =.8.q.=.J l.i.9 7.d ].].].].].].].].].",
"].].].].].].].].].  r.&.. H :.,.M h.G O 0 q.f ].].].].].].].].].",
"].].].].].].].].].  6.N U.N.9 8 k.A n.~.I ,.s . ].].].].].].].].",
"].].].].].].].].].  p 8 `.m.Z.I R.S.M._.P 1 > ].].].].].].].].].",
"].].].].].].].].].].  7 v.B.'.).E.`.C.^.h : o ].].].].].].].].].",
"].].].].].].].].].].].  A T.W.W.W.T./.s.z.P.g ].].].].].].].].].",
"].].].].].].].].].].].  8 C L.K.D.Y.d.c x.b.0   ].].].].].].].].",
"].].].].].].].].].].].  h H j O.( O.u 7 O./ & ].].].].].].].].].",
"].].].].].].].].].].].O V.H.# y ! ! Q a r * ].].].].].].].].].].",
"].].].].].].].].].].  7 +.G.# 3 5.9.S T ; ].].].].].].].].].].].",
"].].].].].].].].].].  I P.I.e T r.u.X.' E + ].].].].].].].].].].",
"].].].].].].].].].].  K.(.U T | o.4.| | W * ].].].].].].].].].].",
"].].].].].].].].].].  J.W.# T { | | | ` - ].].].].].].].].].].].",
"].].].].].].].].].].]., ,   + - - - = *   ].].].].].].].].].].].",
"].].].].].].].].].].].].            6 2 . ].].].].].].].].].].].",
"].].].].].].].].].].].].].].].].].  D m 2 . ].].].].].].].].].].",
"].].].].].].].].].].].].].].].].].  2 b v % ].].].].].].].].].].",
"].].].].].].].].].].].].].].].].].  k n n 5   ].].].].].].].].].",
"].].].].].].].].].].].].].].].].].].4 k l < ].].].].].].].].].]."
};
