/* XPM */
static char *result[] = {
/* columns rows colors chars-per-pixel */
"32 32 187 2 ",
"   c #000000",
".  c #0A0606",
"X  c #160806",
"o  c #001500",
"O  c #1B1714",
"+  c #1A140E",
"@  c #26020A",
"#  c #330002",
"$  c #380D00",
"%  c #3F1700",
"&  c #2E0F13",
"*  c #002600",
"=  c #002B00",
"-  c #003D00",
";  c #3E2A03",
":  c #362D00",
">  c #362A19",
",  c #353025",
"<  c #4F1207",
"1  c #62001F",
"2  c #6D0E0D",
"3  c #543011",
"4  c #6D2500",
"5  c #762F00",
"6  c #683808",
"7  c #7F3811",
"8  c #562A36",
"9  c #512C24",
"0  c #004000",
"q  c #004D00",
"w  c #005500",
"e  c #006C00",
"r  c DarkGreen",
"t  c #1B6100",
"y  c #007700",
"u  c #206802",
"i  c #504A00",
"p  c #4A471D",
"a  c #625900",
"s  c #7C5812",
"d  c #516702",
"f  c #594736",
"g  c #78412F",
"h  c #6C5424",
"j  c #407C3A",
"k  c #452170",
"l  c #695549",
"z  c #795754",
"x  c #7D6043",
"c  c #8A0000",
"v  c #930019",
"b  c #A30000",
"n  c #B20000",
"m  c #BF001E",
"M  c #CE0005",
"N  c red",
"B  c #F20000",
"V  c #8A4A00",
"C  c #985505",
"Z  c #874915",
"A  c #964C0C",
"S  c #A04000",
"D  c #AC5D00",
"F  c #8A641C",
"G  c #A8681B",
"H  c #B2791B",
"J  c #AB730C",
"K  c #814828",
"L  c #9C4B2E",
"P  c #B37131",
"I  c #CB7F00",
"U  c #D34530",
"Y  c #857E49",
"T  c #B4754D",
"R  c #008500",
"E  c #008C00",
"W  c #009400",
"Q  c #049700",
"!  c #00A600",
"~  c #00AA00",
"^  c #00B600",
"/  c #00BA00",
"(  c #659400",
")  c #64AD00",
"_  c #71B200",
"`  c #5E8D25",
"'  c #71B039",
"]  c #00C400",
"[  c #00CD00",
"{  c #00DE00",
"}  c #00D300",
"|  c #11D000",
" . c #3AD200",
".. c #00E300",
"X. c #00EA00",
"o. c #00F500",
"O. c green",
"+. c #2BEF00",
"@. c #27FF00",
"#. c #33FF00",
"$. c #63C300",
"%. c #53884E",
"&. c #7BCF73",
"*. c #B58500",
"=. c #B39C00",
"-. c #AB8800",
";. c #97AA00",
":. c #B1A700",
">. c #C88407",
",. c #C48E09",
"<. c #D5A300",
"1. c #DFA500",
"2. c #C7B400",
"3. c #D1B300",
"4. c #D6BB00",
"5. c #E5A206",
"6. c #EEBD00",
"7. c #E9B500",
"8. c #FDB700",
"9. c #C68538",
"0. c #88DF00",
"q. c #84E000",
"w. c #DBDD00",
"e. c #D7C200",
"r. c #E9C500",
"t. c #F4CE00",
"y. c #E1DB00",
"u. c #FFD400",
"i. c #DEF900",
"p. c #EAE700",
"a. c #FEEA00",
"s. c #F4E800",
"d. c #F5FE00",
"f. c #FCFE00",
"g. c #FBF100",
"h. c #B98753",
"j. c #8EBB5D",
"k. c #A18D6E",
"l. c #AE9370",
"z. c #A88973",
"x. c #87A877",
"c. c #C98C56",
"v. c #D29C59",
"b. c #CA975A",
"n. c #E4AF4E",
"m. c #F4B359",
"M. c #C48A67",
"N. c #C99867",
"B. c #D09F72",
"V. c #D49C69",
"C. c #DAAE78",
"Z. c #DCB06E",
"A. c #EEA076",
"S. c #E6B17A",
"D. c #91D071",
"F. c #7368B8",
"G. c #3F44DB",
"H. c #6173D9",
"J. c #4D73FF",
"K. c #7072EA",
"L. c #7B8ECE",
"P. c #BFB099",
"I. c #B8AB96",
"U. c #DCBC82",
"Y. c #C9AF87",
"T. c #FFBB9B",
"R. c #B9F0A7",
"E. c #FFD28A",
"W. c #EFC698",
"Q. c #F4CC99",
"!. c #F9C79B",
"~. c #F2CA8E",
"^. c #EFCBA1",
"/. c #FDD8A5",
"(. c #FEE3AC",
"). c #FEE4B3",
"_. c #FFEAB6",
"`. c #FFEFB8",
"'. c #E4E3B0",
"]. c #9D8ECD",
"[. c #96B0FF",
"{. c #95A3FF",
"}. c #FFF7C5",
"|. c #FFFBC8",
" X c #CAD2FF",
".X c #FFFEE1",
"XX c None",
/* pixels */
"XXXXXXXXXXXXXXXXXXXXXXXXXX  y ^ ! / q XXXXXXXXXXXXXXXXXXXXXXXXXX",
"XXXXXXXXXXXXXXXXXXXXXXXXXXe [ ....../ 0 XXXXXXXXXXXXXXXXXXXXXXXX",
"XXXXXXXXXXXXXXXXXXXXXXXX- X.O.O.O.O.O./ = XXXXXXXXXXXXXXXXXXXXXX",
"XXXXXXXXXXXXXXXXXXXXXX  } O.O.O.O.O.O.O.W   XXXXXXXXXXXXXXXXXXXX",
"XXXXXXXXXXXXXXXXXXXX  e o.O.O.O.O.O.O.O.{ - XXXXXXXXXXXXXXXXXXXX",
"XXXXXXXXXXXXXXXXXXXX  u +.@.@.@.@.@.#. .{ R   XXXXXXXXXXXXXXXXXX",
"XXXXXXXXXXXXXXXXXXXX+ G a.f.f.f.f.f.f.8.$.~ o XXXXXXXXXXXXXXXXXX",
"XXXXXXXXXXXXXXXXXXX K y.f.d.d.d.d.d.d.f.u.) w 8 XXXXXXXXXXXXXXXX",
"XXXXXXXXXXXXXXH C.3 4.f.r.s.d.d.a.1.*.y.f.:.; g C.H XXXXXXXXXXXX",
"XXXXXXXXXXXXXXC Q.L d.a.r.s.d.g.1.T T =.p.4.L C.C.C XXXXXXXXXXXX",
"XXXXXXXXXXXXXX5 W.c.y.5.s.d.d.7.P v.W.M.3.e.V.|.B.4 XXXXXXXXXXXX",
"XXXXXXXXXXXXXXXXZ S.K G p.f.t.>.c.W.(.(.Z.>.m.B.7 XXXXXXXXXXXXXX",
"XXXXXXXXXXXXXXXXXXf =.V 7.u.8.D T /.`.|.h.J 2.9 XXXXXXXXXXXXXXXX",
"XXXXXXXXXXXXXXXXXX  i.J Z >.5.G M./.~.h.g 3.;.  XXXXXXXXXXXXXXXX",
"XXXXXXXXXXXXXXXXXX  w.<.+ h H N./.Q.T X 9 t.;.  XXXXXXXXXXXXXXXX",
"XXXXXXXXXXXXXXXXXX  7.D P.H.8 P _.9.k L.z.I -.  XXXXXXXXXXXXXXXX",
"XXXXXXXXXXXXXXXXXXXX3 % .XJ.F.U.(.U.G.[.E.V 3 XXXXXXXXXXXXXXXXXX",
"XXXXXXXXXXXXXXXXXXXX.   I.K. X.X/..X{.].n.; XXXXXXXXXXXXXXXXXXXX",
"XXXXXXXXXXXXXXXXXX  5 . < M./.).(.).Q.v.6   XXXXXXXXXXXXXXXXXXXX",
"XXXXXXXXXXXXXXXX  k.c.&.Z S U.T.T./.v.V % XXXXXXXXXXXXXXXXXXXXXX",
"XXXXXXXXXXXXXXXX  `.`.D.p : ` ' ' Y K F h X XXXXXXXXXXXXXXXXXXXX",
"XXXXXXXXXXXXXXXX  Y.'.O . r ! ! / 0 # j.D.< . XXXXXXXXXXXXXXXXXX",
"XXXXXXXXXXXXXXXXXXO O   2 E / ~ ! W o %.R.j   XXXXXXXXXXXXXXXXXX",
"XXXXXXXXXXXXXXXXXXXXXX  t d i _ q.( < > x.R.f XXXXXXXXXXXXXXXXXX",
"XXXXXXXXXXXXXXXXXXXXXX  ^ Q 6 e.f.=.a X l .Xl.  XXXXXXXXXXXXXXXX",
"XXXXXXXXXXXXXXXXXXXXXX  ] O.] 0.d.| / 0 z (.x   XXXXXXXXXXXXXXXX",
"XXXXXXXXXXXXXXXXXXXXXXXX= E O.O.O.O.o.q O , O   XXXXXXXXXXXXXXXX",
"XXXXXXXXXXXXXXXXXXXXXXXX& d Q R R E y *       XXXXXXXXXXXXXXXXXX",
"XXXXXXXXXXXXXXXXXXXXXXX v U &         XXXXXXXXXXXXXXXXXXXXXXXXXX",
"XXXXXXXXXXXXXXXXXXXX  1 B M @ XXXXXXXXXXXXXXXXXXXXXXXXXXXXXXXXXX",
"XXXXXXXXXXXXXXXXXXXX  M N N < XXXXXXXXXXXXXXXXXXXXXXXXXXXXXXXXXX",
"XXXXXXXXXXXXXXXXXXXX  c b n # XXXXXXXXXXXXXXXXXXXXXXXXXXXXXXXXXX"
};
