/* XPM */
static char *result[] = {
/* columns rows colors chars-per-pixel */
"32 32 173 2 ",
"   c #000101",
".  c #000B00",
"X  c #0C0805",
"o  c #130C04",
"O  c #1A0807",
"+  c #001500",
"@  c #001800",
"#  c #18150B",
"$  c #1C1813",
"%  c #280606",
"&  c #2A1905",
"*  c #201B14",
"=  c #002B00",
"-  c #002700",
";  c #003200",
":  c #003B00",
">  c #1C331C",
",  c #202000",
"<  c #440800",
"1  c #501409",
"2  c #681606",
"3  c #70001C",
"4  c #48290C",
"5  c #402E10",
"6  c #40231F",
"7  c #572F0B",
"8  c #703709",
"9  c #004D00",
"0  c #005700",
"q  c #005E00",
"w  c #3C5800",
"e  c DarkGreen",
"r  c #006C00",
"t  c #007B00",
"y  c #3A5E2C",
"u  c #594707",
"i  c #695D00",
"p  c #6D5012",
"a  c #456A00",
"s  c #7E6200",
"d  c #53402B",
"f  c #6C523E",
"g  c #724C35",
"h  c #565640",
"j  c #666E79",
"k  c #833E18",
"l  c #86390C",
"z  c #954600",
"x  c #994E05",
"c  c #925800",
"v  c #8E4B16",
"b  c #804E17",
"n  c #96591D",
"m  c #844408",
"M  c #A55A02",
"N  c #A85310",
"B  c #916B00",
"V  c #AD7300",
"C  c #B07C00",
"Z  c #B76B13",
"A  c #804C24",
"S  c #985B27",
"D  c #86523E",
"F  c #A05927",
"G  c #9E6222",
"H  c #A46738",
"J  c #AE7136",
"K  c #AF7627",
"L  c #C07E1D",
"P  c #C87B2A",
"I  c #82755A",
"U  c #A36046",
"Y  c #A36F55",
"T  c #B77D49",
"R  c #008A00",
"E  c #009400",
"W  c #009B00",
"Q  c #00A200",
"!  c #00AE00",
"~  c #00B400",
"^  c #428E00",
"/  c #00C500",
"(  c #00D200",
")  c #00E300",
"_  c #00EA00",
"`  c #00FF00",
"'  c #00F600",
"]  c #68D800",
"[  c #7B8D4A",
"{  c #48A557",
"}  c #B78800",
"|  c #AD9000",
" . c #B68219",
".. c #92AE00",
"X. c #BE8228",
"o. c #C68905",
"O. c #D58D00",
"+. c #C49C00",
"@. c #DA9A0B",
"#. c #F99400",
"$. c #D9A200",
"%. c #EDB500",
"&. c #E4BF00",
"*. c #F1B200",
"=. c #F3B014",
"-. c #EF9A31",
";. c #9BC200",
":. c #D8C900",
">. c #EECB00",
",. c #FFC300",
"<. c #E9D400",
"1. c #FCD300",
"2. c #FFDB00",
"3. c #D6F800",
"4. c #EAE700",
"5. c #ECEA00",
"6. c #F5EC00",
"7. c #EAFD00",
"8. c #F2F300",
"9. c #F5FD00",
"0. c #FDFE00",
"q. c #BA8858",
"w. c #AC9969",
"e. c #BBA866",
"r. c #C1854F",
"t. c #CF9D4F",
"y. c #D09F5B",
"u. c #C79251",
"i. c #EFA95F",
"p. c #E2A546",
"a. c #CC9B68",
"s. c #C3B46F",
"d. c #D6A372",
"f. c #DAAC7A",
"g. c #DDB077",
"h. c #F7B774",
"j. c #82C865",
"k. c #87EB7A",
"l. c #D0C057",
"z. c #4A3081",
"x. c #7B5E89",
"c. c #5F6F84",
"v. c #221EFC",
"b. c #2B3AFF",
"n. c #3A4AFF",
"m. c #7CF481",
"M. c #DDAD81",
"N. c #DFB185",
"B. c #8EFF8E",
"V. c #88FF92",
"C. c #90FFA0",
"Z. c #ECC28E",
"A. c #F2C08C",
"S. c #EEC592",
"D. c #F7C998",
"F. c #FFD994",
"G. c #FFCCA3",
"H. c #FFDDAA",
"J. c #FDD7A1",
"K. c #CBFFAC",
"L. c #FFE4B4",
"P. c #FFEBB8",
"I. c #FFF3BD",
"U. c #CFC2DB",
"Y. c #D9C9D7",
"T. c #FFFECC",
"R. c #FFF3C0",
"E. c #FFF7D5",
"W. c #D5D0E7",
"Q. c #ECF9FF",
"!. c white",
"~. c #F2F2EE",
"^. c None",
/* pixels */
"^.^.^.^.^.^.^.^.^.^.^.^.^.^.^.^.^.^.^.^.^.^.^.^.^.^.^.^.^.^.^.^.",
"^.^.^.^.^.^.^.^.^.^.^.^.^.^.@ ~ W   ^.^.^.^.^.^.^.^.^.^.^.^.^.^.",
"^.^.^.^.^.^.^.^.^.^.^.^.    r Q W 0     ^.^.^.^.^.^.^.^.^.^.^.^.",
"^.^.^.^.^.^.^.^.^.^.^.^.: e ) / / ( 9 ; ^.^.^.^.^.^.^.^.^.^.^.^.",
"^.^.^.^.^.^.^.^.^.^.^.- ( ` ` ` ` ` ` ~   ^.^.^.^.^.^.^.^.^.^.^.",
"^.^.^.^.^.^.^.^.^.^.^.= ` ` ` ` ` ` ` `   ^.^.^.^.^.^.^.^.^.^.^.",
"^.^.^.^.^.^.^.^.^.^.+ R ` ` ` ` ` ` ` ` 0 . ^.^.^.^.^.^.^.^.^.^.",
"^.^.^.^.^.^.^.^.^.^.; _ _ ` ` ` ` ` ` ) ( . ^.^.^.^.^.^.^.^.^.^.",
"^.^.^.^.^.^.^.^.^.^.9 ` o.9.7.7.7.7.7.K ` . ^.^.^.^.^.^.^.^.^.^.",
"^.^.^.^.^.^.^.^.^.@ E ..1.0.0.0.0.0.9.>.;.E   ^.^.^.^.^.^.^.^.^.",
"^.^.^.^.^.^.^.^.Y # ^ #.0.9.9.9.9.9.:.0.,.E % ^.^.^.^.^.^.^.^.^.",
"^.^.^.^.^.^.^.u.a.l N 1.9.8.9.9.9.5.J 5.0.z v f.J ^.^.^.^.^.^.^.",
"^.^.^.^.^.^.^.q.T.g.} 0.6.%.9.9.8. .d.C 9.V S.I.G ^.^.^.^.^.^.^.",
"^.^.^.^.^.^.^.F q.r.>.0.%.*.0.9.8.J f.N.1.K G.a.^.^.^.^.^.^.^.^.",
"^.^.^.^.^.^.^.^.1 x $.4.-.$.6.0.9.n S.P.P +.y.7 ^.^.^.^.^.^.^.^.",
"^.^.^.^.^.^.^.^.5 Z m X.@.K *.9.4.k H.f.8 8.o.# ^.^.^.^.^.^.^.^.",
"^.^.^.^.^.^.^.^.7 1.:.A & O.=.} c d.M o G 9.,.# ^.^.^.^.^.^.^.^.",
"^.^.^.^.^.^.^.^.* | >.A c.x.M k U H z.j n 2.B X ^.^.^.^.^.^.^.^.",
"^.^.^.^.^.^.^.^.^.$ v T Q.v.n H Z.D b.!.v L   ^.^.^.^.^.^.^.^.^.",
"^.^.^.^.^.^.^.^.^.^.& p.Y.n.~.J.L.~.b.L.X.o ^.^.^.^.^.^.^.^.^.^.",
"^.^.^.^.^.^.^.^.^.X < 4 f.W.E.P.L.E.U.t.5 ^.^.^.^.^.^.^.^.^.^.^.",
"^.^.^.^.^.^.^.^.O p [ y Z h.G.G.G.D.i.z   ^.^.^.^.^.^.^.^.^.^.^.",
"^.^.^.^.^.^.^.^.4 l.C.j.2 p s.e.e.e.8 p X ^.^.^.^.^.^.^.^.^.^.^.",
"^.^.^.^.^.^.^.^.d F.w.# X E ~ ! W ! t k.  ^.^.^.^.^.^.^.^.^.^.^.",
"^.^.^.^.^.^.^.^.* f 6   e u a ] ] a a V.{   ^.^.^.^.^.^.^.^.^.^.",
"^.^.^.^.^.^.^.^.^.    r ( i s 0.6.u 2 B.K.h ^.^.^.^.^.^.^.^.^.^.",
"^.^.^.^.^.^.^.^.^.^.- ( ` ' ~ 9.3.W   m.H.I.* ^.^.^.^.^.^.^.^.^.",
"^.^.^.^.^.^.^.^.^.^.. e ` ` ' ` ` W R > A.T.* ^.^.^.^.^.^.^.^.^.",
"^.^.^.^.^.^.^.^.^.^.O 1 E ` ` ` ` _ !   g j o ^.^.^.^.^.^.^.^.^.",
"^.^.^.^.^.^.^.^.^.^.% 3   E ( ( ( ( q       ^.^.^.^.^.^.^.^.^.^.",
"^.^.^.^.^.^.^.^.^.^.^.X   . . . . .   ^.^.^.^.^.^.^.^.^.^.^.^.^.",
"^.^.^.^.^.^.^.^.^.^.^.^.^.^.^.^.^.^.^.^.^.^.^.^.^.^.^.^.^.^.^.^."
};
