/* XPM */
static char *result[] = {
/* columns rows colors chars-per-pixel */
"32 32 168 2 ",
"   c #000001",
".  c #000C01",
"X  c #0A0308",
"o  c #160201",
"O  c #140902",
"+  c #001500",
"@  c #051A00",
"#  c #10150C",
"$  c #250008",
"%  c #221708",
"&  c #3F1200",
"*  c #251812",
"=  c #002500",
"-  c #002900",
";  c #003600",
":  c #003A00",
">  c #253A00",
",  c #2B261B",
"<  c #28310F",
"1  c #353328",
"2  c #362E24",
"3  c #421300",
"4  c #430017",
"5  c #4A220E",
"6  c #52330D",
"7  c #6D2F0F",
"8  c #7B3805",
"9  c #793617",
"0  c #763323",
"q  c #004C00",
"w  c #004200",
"e  c #005C00",
"r  c #006400",
"t  c #006C00",
"y  c #1D6100",
"u  c #007A00",
"i  c #424600",
"p  c #6F4B00",
"a  c #714310",
"s  c #735512",
"d  c #5B6900",
"f  c #644E2A",
"g  c #776F28",
"h  c #9C0000",
"j  c #A30000",
"k  c #B10000",
"l  c #822400",
"z  c #853902",
"x  c #873E05",
"c  c #963B00",
"v  c #860024",
"b  c #9B0022",
"n  c #BD0022",
"m  c #FE0000",
"M  c #F00000",
"N  c #844500",
"B  c #954C00",
"V  c #A85514",
"C  c #B36D00",
"Z  c #AC7400",
"A  c #B2770A",
"S  c #AD7217",
"D  c #8B4B21",
"F  c #91582E",
"G  c #A95C20",
"H  c #986226",
"J  c #AF762F",
"K  c #A7683B",
"L  c #B66B39",
"P  c #B47430",
"I  c #C47904",
"U  c #C07C2E",
"Y  c #C66A3F",
"T  c #896A4A",
"R  c #987752",
"E  c #B57B56",
"W  c #B37644",
"Q  c #009500",
"!  c #009E00",
"~  c #00A300",
"^  c #00AB00",
"/  c #00B300",
"(  c #00BC00",
")  c #27BC00",
"_  c #708200",
"`  c #59A23A",
"'  c #5FB233",
"]  c #00C400",
"[  c #00CD00",
"{  c #00DA00",
"}  c #00E000",
"|  c #00F300",
" . c #00FE00",
".. c #27FF00",
"X. c #2FFF00",
"o. c #2CD053",
"O. c #6DEA7C",
"+. c #B98807",
"@. c #B98214",
"#. c #BF883E",
"$. c #C19C00",
"%. c #D59D00",
"&. c #E78600",
"*. c #E29E00",
"=. c #E79F17",
"-. c #CBAC00",
";. c #DAB800",
":. c #EBA900",
">. c #F1AF00",
",. c #EDBB00",
"<. c #FABA00",
"1. c #E7A013",
"2. c #C28C3D",
"3. c #ED9321",
"4. c #93FF00",
"5. c #DFCE00",
"6. c #FDDD00",
"7. c #F0D800",
"8. c #D3F500",
"9. c #EEE900",
"0. c #FBE900",
"q. c #F6FD00",
"w. c #FDFE00",
"e. c #FDC624",
"r. c #918340",
"t. c #BB854D",
"y. c #B5815A",
"u. c #BFA542",
"i. c #CB9546",
"p. c #E6BA5B",
"a. c #C39066",
"s. c #C19E7D",
"d. c #D5A168",
"f. c #DAAB79",
"g. c #E7B67A",
"h. c #B9CD7C",
"j. c #86F47B",
"k. c #3B2FBC",
"l. c #1D1FFF",
"z. c #1F20FF",
"x. c #4747D8",
"c. c #5F69FF",
"v. c #6673FF",
"b. c #B2928A",
"n. c #D3B38E",
"m. c #E5B786",
"M. c #FFBD9A",
"N. c #FFBC96",
"B. c #94FF94",
"V. c #88FF99",
"C. c #A0FFA6",
"Z. c #DFC285",
"A. c #ECC998",
"S. c #F4CC99",
"D. c #FFD49A",
"F. c #F0CBAC",
"G. c #FBD6A9",
"H. c #DDF1A7",
"J. c #FFE2AE",
"K. c #FFE3B1",
"L. c #FEECBC",
"P. c #FDE7B6",
"I. c #FBF4BA",
"U. c #ACBACE",
"Y. c #BAC4D2",
"T. c #FFF3C2",
"R. c #FFFFFF",
"E. c None",
/* pixels */
"E.E.E.E.E.E.E.E.E.E.E.E.E.E.  ^ ^ ^ / + E.E.E.E.E.E.E.E.E.E.E.E.",
"E.E.E.E.E.E.E.E.E.E.E.E.E.  r ! ! ! ~ t   E.E.E.E.E.E.E.E.E.E.E.",
"E.E.E.E.E.E.E.E.E.E.E.E.E.: { ] ] ] ] { q E.E.E.E.E.E.E.E.E.E.E.",
"E.E.E.E.E.E.E.E.E.E.E.E.+ (  . . . . . .[ = E.E.E.E.E.E.E.E.E.E.",
"E.E.E.E.E.E.E.E.E.E.E.. Q  . . . . . . . .! @ E.E.E.E.E.E.E.E.E.",
"E.E.E.E.E.E.E.E.E.E.E.+  .( ..........X.)  .- E.E.E.E.E.E.E.E.E.",
"E.E.E.E.E.E.E.E.E.E.E.: | I w.w.w.w.w.w.&.| e E.E.E.E.E.E.E.E.E.",
"E.E.E.E.E.E.E.E.E.E.X ~ $.w.q.q.q.q.q.q.w.<./ + E.E.E.E.E.E.E.E.",
"E.E.E.E.E.E.E.E.2.a.3 d 3.w.q.,.q.q.w.$.w.0.d 3 E i.E.E.E.E.E.E.",
"E.E.E.E.E.E.E.E.P A.W V 0.w.7.,.q.q.5.E -.w.I K A.t.E.E.E.E.E.E.",
"E.E.E.E.E.E.E.E.H P.G.Z w.9.1.q.q.w.S m.E 9.+.A.T.W E.E.E.E.E.E.",
"E.E.E.E.E.E.E.E.E.K m.x ,.@.:.q.q.w.+.a.G.e.A g.W E.E.E.E.E.E.E.",
"E.E.E.E.E.E.E.E.E.8 f -.V P >.q.q.6.Z S.P.K ;.g 7 E.E.E.E.E.E.E.",
"E.E.E.E.E.E.E.E.E.E.@ w.9 s *.0.0.I #.g.R 0 w.> E.E.E.E.E.E.E.E.",
"E.E.E.E.E.E.E.E.E.E.< w.H X J 1.=.8 f.D X F w.i E.E.E.E.E.E.E.E.",
"E.E.E.E.E.E.E.E.E.E.% %.D Y.x.z z m.B k.U.F <.6 E.E.E.E.E.E.E.E.",
"E.E.E.E.E.E.E.E.E.E.E.5 G R.l.b.y.L.s.z.R.f 8 % E.E.E.E.E.E.E.E.",
"E.E.E.E.E.E.E.E.E.E.E., u.A.c.R.T.J.R.v.F.,   E.E.E.E.E.E.E.E.E.",
"E.E.E.E.E.E.E.E.E.E.* m.j.P P.K.J.J.J.L.i.% E.E.E.E.E.E.E.E.E.E.",
"E.E.E.E.E.E.E.E.E.E.% p.B.x Y N.M.M.D.L c O E.E.E.E.E.E.E.E.E.E.",
"E.E.E.E.E.E.E.E.E.E.O s o.l y ` ` ' T g r.# E.E.E.E.E.E.E.E.E.E.",
"E.E.E.E.E.E.E.E.E.E.E.. t p ~ / / ~   O.C.1 E.E.E.E.E.E.E.E.E.E.",
"E.E.E.E.E.E.E.E.E.E.E.E.+ Q z 8.8.N   O.V.s O E.E.E.E.E.E.E.E.E.",
"E.E.E.E.E.E.E.E.E.E.E.. r | ^ w.w./ q h.H.d.* E.E.E.E.E.E.E.E.E.",
"E.E.E.E.E.E.E.E.E.E.E.. u  . .4.4. .^ T G.I.2 E.E.E.E.E.E.E.E.E.",
"E.E.E.E.E.E.E.E.E.E.E.E.. ^  . . . .(   n.I.1 E.E.E.E.E.E.E.E.E.",
"E.E.E.E.E.E.E.E.E.E.E.E.  = - ; ; ; -   , 1 E.E.E.E.E.E.E.E.E.E.",
"E.E.E.E.E.E.E.E.E.E.E.E.  4 6 X   X         E.E.E.E.E.E.E.E.E.E.",
"E.E.E.E.E.E.E.E.E.E.E.E.$ n P   E.E.E.E.E.E.E.E.E.E.E.E.E.E.E.E.",
"E.E.E.E.E.E.E.E.E.E.E.X b m v   E.E.E.E.E.E.E.E.E.E.E.E.E.E.E.E.",
"E.E.E.E.E.E.E.E.E.E.E.$ m m M   E.E.E.E.E.E.E.E.E.E.E.E.E.E.E.E.",
"E.E.E.E.E.E.E.E.E.E.E.o k h j   E.E.E.E.E.E.E.E.E.E.E.E.E.E.E.E."
};
