/* XPM */
static char *result[] = {
/* columns rows colors chars-per-pixel */
"32 32 181 2 ",
"   c #010101",
".  c #000C00",
"X  c #050708",
"o  c #130004",
"O  c #1A0008",
"+  c #110D0A",
"@  c #001700",
"#  c #001F00",
"$  c #141215",
"%  c #250103",
"&  c #270D00",
"*  c #300200",
"=  c #002300",
"-  c #002A00",
";  c #003400",
":  c #0B2E1B",
">  c #39240B",
",  c #272B15",
"<  c #352D20",
"1  c #491700",
"2  c #79140F",
"3  c #5A390B",
"4  c #41240B",
"5  c #73370A",
"6  c #7D0022",
"7  c #543E2B",
"8  c #623723",
"9  c #78392A",
"0  c #004900",
"q  c #005600",
"w  c #1A401E",
"e  c #2E4604",
"r  c #006200",
"t  c #006F00",
"y  c #007400",
"u  c #3A6535",
"i  c #4E4F00",
"p  c #485E00",
"a  c #505E00",
"s  c #5E4A04",
"d  c #5B7300",
"f  c #7A6000",
"g  c #6D7A00",
"h  c #57472B",
"j  c #7F7739",
"k  c #6B5D47",
"l  c #9C0000",
"z  c #A10000",
"x  c #B20000",
"c  c #A9001E",
"v  c #8B3E00",
"b  c #833B1D",
"n  c #A40024",
"m  c #FE0000",
"M  c #F50000",
"N  c #8A4600",
"B  c #9D4200",
"V  c #9B5A11",
"C  c #8E4B0E",
"Z  c #A1431A",
"A  c #9D7200",
"S  c #AB7300",
"D  c #AD6709",
"F  c #99572A",
"G  c #B85D2E",
"H  c #966C28",
"J  c #B37A28",
"K  c #A87325",
"L  c #CC7E1F",
"P  c #C94531",
"I  c #87684B",
"U  c #996E4E",
"Y  c #A37955",
"T  c #B17148",
"R  c #008400",
"E  c #008900",
"W  c #009A00",
"Q  c #009600",
"!  c #00A500",
"~  c #00AE00",
"^  c #00B300",
"/  c #00BA00",
"(  c #468200",
")  c #679F2B",
"_  c #6EB035",
"`  c #72AB3A",
"'  c #00C300",
"]  c #00D300",
"[  c #00DC00",
"{  c #16C300",
"}  c #3BC200",
"|  c #00EB00",
" . c #00E200",
".. c #00FF00",
"X. c #00F100",
"o. c #26FE00",
"O. c #33FF00",
"+. c #77C700",
"@. c #549D55",
"#. c #60AB5D",
"$. c #96890C",
"%. c #BB9000",
"&. c #BB821F",
"*. c #B88800",
"=. c #A6AE00",
"-. c #848735",
";. c #B98235",
":. c #C68309",
">. c #C59E00",
",. c #CF8117",
"<. c #FE9C00",
"1. c #E39C1D",
"2. c #CCAC00",
"3. c #F1A300",
"4. c #EDBC00",
"5. c #E8A413",
"6. c #F2A523",
"7. c #84E000",
"8. c #BAEE00",
"9. c #D7C100",
"0. c #E8C300",
"q. c #FAC800",
"w. c #EADA00",
"e. c #FCDC00",
"r. c #F9D100",
"t. c #ECEC00",
"y. c #FCE500",
"u. c #EFF500",
"i. c #F5F400",
"p. c #FDF300",
"a. c #F5FD00",
"s. c #FCFE00",
"d. c #938341",
"f. c #AF9079",
"g. c #BB8B71",
"h. c #9DAA6E",
"j. c #C28653",
"k. c #CB9254",
"l. c #DDA85E",
"z. c #D1A54C",
"x. c #C08D60",
"c. c #CD9869",
"v. c #D7A77D",
"b. c #D4A473",
"n. c #D0A773",
"m. c #94E077",
"M. c #EBC57C",
"N. c #3D2599",
"B. c #283EFF",
"V. c #272BF8",
"C. c #505BDD",
"Z. c #6468F4",
"A. c #937D9D",
"S. c #7A8BFF",
"D. c #E5B685",
"F. c #E7BF91",
"G. c #FFBD9B",
"H. c #FCB08B",
"J. c #82F985",
"K. c #ADFFAC",
"L. c #B1FFA9",
"P. c #DDDD9D",
"I. c #FAC58C",
"U. c #F5CD9D",
"Y. c #FDD89E",
"T. c #EFC890",
"R. c #C3C3BF",
"E. c #F9D9A7",
"W. c #FFE2AF",
"Q. c #FEE3B4",
"!. c #FFEAB4",
"~. c #FFF8BF",
"^. c #94A6CD",
"/. c #D5BAC6",
"(. c #FFECC3",
"). c #FFF3C3",
"_. c #FFFFDB",
"`. c #D7E0FF",
"'. c #FFFFE9",
"]. c #EEF4FF",
"[. c None",
/* pixels */
"[.[.[.[.[.[.[.[.[.[.[.[.[.[.. E / @ [.[.[.[.[.[.[.[.[.[.[.[.[.[.",
"[.[.[.[.[.[.[.[.[.[.[.[.  E W ] | ! ^ = [.[.[.[.[.[.[.[.[.[.[.[.",
"[.[.[.[.[.[.[.[.[.[.[.[.0 ^ ........| t @ [.[.[.[.[.[.[.[.[.[.[.",
"[.[.[.[.[.[.[.[.[.[.[.. ................r [.[.[.[.[.[.[.[.[.[.[.",
"[.[.[.[.[.[.[.[.[.[.  y ................' - [.[.[.[.[.[.[.[.[.[.",
"[.[.[.[.[.[.[.[.[.[.  | ^ o.o.o.o.o.O.} X.q [.[.[.[.[.[.[.[.[.[.",
"[.[.[.[.[.[.[.[.[.[.- | :.p.s.p.s.p.s.<. .R . [.[.[.[.[.[.[.[.[.",
"[.[.[.[.[.[.[.[.[.  ! H t.a.a.a.s.a.s.a.q.^ ; [.[.[.[.[.[.[.[.[.",
"[.[.[.[.[.[.[.J b.1 p 0.s.4.i.a.a.a.2.t.p.=.4 U l.[.[.[.[.[.[.[.",
"[.[.[.[.[.[.[.K U.j.Z s.y.4.i.a.s.w.J >.i.r.D c.b.N [.[.[.[.[.[.",
"[.[.[.[.[.[.[.C E.Q.J a.1.a.a.s.i.*.v.g.4.u.2.D.x.[.[.[.[.[.[.[.",
"[.[.[.[.[.[.[.[.F T.J a.&.u.a.s.>.x.U.Q.z.S l.j.v [.[.[.[.[.[.[.",
"[.[.[.[.[.[.[.[.[.h b r.V 4.q.e.C D.(.~.T *.$.7 [.[.[.[.[.[.[.[.",
"[.[.[.[.[.[.[.[.[.  A L 1 L 6.,.C T.T.Y 9 y.d [.[.[.[.[.[.[.[.[.",
"[.[.[.[.[.[.[.[.[.  s.N   H 5.N c.F.F o 8 y.g [.[.[.[.[.[.[.[.[.",
"[.[.[.[.[.[.[.[.[.  r.v R.C.5 T E.D N.^.Y 3.f   [.[.[.[.[.[.[.[.",
"[.[.[.[.[.[.[.[.[.[.3 * '.B.A.U.!.v.V.`.Y 3 > [.[.[.[.[.[.[.[.[.",
"[.[.[.[.[.[.[.[.[.[.$ : M.Z.].(.E.'.S./.h X [.[.[.[.[.[.[.[.[.[.",
"[.[.[.[.[.[.[.[.[.  b.J.K E.Q.Q.W.W.).l.> [.[.[.[.[.[.[.[.[.[.[.",
"[.[.[.[.[.[.[.[.[.X I.K.V G H.I.G.Y.j.B & [.[.[.[.[.[.[.[.[.[.[.",
"[.[.[.[.[.[.[.[.[.  I @.4 e ) ` _ I H d., [.[.[.[.[.[.[.[.[.[.[.",
"[.[.[.[.[.[.[.[.[.[.      ! ~ ! / . #.L.u [.[.[.[.[.[.[.[.[.[.[.",
"[.[.[.[.[.[.[.[.[.[.[.  2 ! ^ ! ! R 5 m.-.% [.[.[.[.[.[.[.[.[.[.",
"[.[.[.[.[.[.[.[.[.[.  r / a i +.7.( & h.P.h [.[.[.[.[.[.[.[.[.[.",
"[.[.[.[.[.[.[.[.[.[.  ^ ..( 3 y.s.$.+ f._.k [.[.[.[.[.[.[.[.[.[.",
"[.[.[.[.[.[.[.[.[.[.  W ....^ 8.a.] @ f.Y.7 [.[.[.[.[.[.[.[.[.[.",
"[.[.[.[.[.[.[.[.[.[.[.= / ........[ E : < + [.[.[.[.[.[.[.[.[.[.",
"[.[.[.[.[.[.[.[.[.[.[.  e { Q R R r q .   [.[.[.[.[.[.[.[.[.[.[.",
"[.[.[.[.[.[.[.[.[.[.[.O c P O         [.[.[.[.[.[.[.[.[.[.[.[.[.",
"[.[.[.[.[.[.[.[.[.[.  6 m n o [.[.[.[.[.[.[.[.[.[.[.[.[.[.[.[.[.",
"[.[.[.[.[.[.[.[.[.[.  M m m % [.[.[.[.[.[.[.[.[.[.[.[.[.[.[.[.[.",
"[.[.[.[.[.[.[.[.[.[.  z l x O [.[.[.[.[.[.[.[.[.[.[.[.[.[.[.[.[."
};
