/* XPM */
static char *result[] = {
/* columns rows colors chars-per-pixel */
"32 32 190 2 ",
"   c #010101",
".  c #020A02",
"X  c #0B0303",
"o  c #150001",
"O  c #170C06",
"+  c #001500",
"@  c #001D00",
"#  c #0E1A0E",
"$  c #19130E",
"%  c #260A04",
"&  c #3C1A06",
"*  c #2E0A05",
"=  c #002500",
"-  c #002B00",
";  c #033C00",
":  c #002214",
">  c #2D231A",
",  c #35291E",
"<  c #3A352C",
"1  c #591707",
"2  c #5D0010",
"3  c #46150C",
"4  c #4C2D00",
"5  c #5D2E00",
"6  c #533E18",
"7  c #622600",
"8  c #772D00",
"9  c #673607",
"0  c #762113",
"q  c #403424",
"w  c #623839",
"e  c #004300",
"r  c #004A00",
"t  c #005E00",
"y  c #005700",
"u  c #006700",
"i  c #017300",
"p  c #007D00",
"a  c #006423",
"s  c #2E6434",
"d  c #585E00",
"f  c #6C420F",
"g  c #6E5218",
"h  c #626600",
"j  c #5B503F",
"k  c #5A5A23",
"l  c #6B403B",
"z  c #473679",
"x  c #3F7544",
"c  c #785E46",
"v  c #684059",
"b  c #714D6E",
"n  c #70706D",
"m  c #870001",
"M  c #910A19",
"N  c #B50000",
"B  c #8A2F14",
"V  c #980027",
"C  c red",
"Z  c #F30000",
"A  c #874704",
"S  c #904600",
"D  c #934F17",
"F  c #A25600",
"G  c #83601C",
"H  c #B76F00",
"J  c #B77E00",
"K  c #A56815",
"L  c #AB7510",
"P  c #965323",
"I  c #894E35",
"U  c #A66A2E",
"Y  c #AB7022",
"T  c #AA6836",
"R  c #B47B33",
"E  c #C06A00",
"W  c #C17507",
"Q  c #D07C31",
"!  c #C37026",
"~  c #815F45",
"^  c #957250",
"/  c #AC784E",
"(  c #B87C63",
")  c #008D00",
"_  c #008A07",
"`  c #009500",
"'  c #009C00",
"]  c #00A400",
"[  c #00AA00",
"{  c #00B400",
"}  c #00BB00",
"|  c #488100",
" . c #479A00",
".. c #53A200",
"X. c #00C400",
"o. c #00CB00",
"O. c #00D300",
"+. c #00DC00",
"@. c #00E200",
"#. c #00F100",
"$. c #00FE00",
"%. c #33FF00",
"&. c #4E9F5A",
"*. c #71BB69",
"=. c #35D95D",
"-. c #6FD176",
";. c #86801F",
":. c #969900",
">. c #AC8F00",
",. c #B98704",
"<. c #BB940C",
"1. c #B4822D",
"2. c #C89800",
"3. c #DE9900",
"4. c #C1821E",
"5. c #D7961B",
"6. c #C6A100",
"7. c #CFB400",
"8. c #D7B800",
"9. c #D8A400",
"0. c #EAB600",
"q. c #EAA312",
"w. c #C4813C",
"e. c #DDCD00",
"r. c #DCC200",
"t. c #DDDF00",
"y. c #EBC500",
"u. c #F7CB00",
"i. c #E4D200",
"p. c #FED900",
"a. c #F0D000",
"s. c #F8E800",
"d. c #ECFD00",
"f. c #F4F400",
"g. c #F5FD00",
"h. c #FDFD00",
"j. c #FFF100",
"k. c #E4E500",
"l. c #B58050",
"z. c #AD9652",
"x. c #9B9579",
"c. c #A28C6C",
"v. c #BEAA67",
"b. c #E39551",
"n. c #DCA559",
"m. c #EBB65A",
"M. c #C28F62",
"N. c #C79368",
"B. c #D29A69",
"V. c #D3A26A",
"C. c #D5A674",
"Z. c #D9A97B",
"A. c #C5B36F",
"S. c #E0AF76",
"D. c #E3B875",
"F. c #95D96A",
"G. c #626F8A",
"H. c #2820D2",
"J. c #3F62FF",
"K. c #4149FF",
"L. c #5467FF",
"P. c #DEB082",
"I. c #DBB792",
"U. c #ECBF90",
"Y. c #F0B982",
"T. c #89FF92",
"R. c #A7FF9F",
"E. c #ADEB91",
"W. c #AEFFA4",
"Q. c #B4FFA8",
"!. c #D1DC99",
"~. c #ECC38F",
"^. c #F7C68C",
"/. c #F7C995",
"(. c #F7D697",
"). c #FFCDA4",
"_. c #FEDBA6",
"`. c #F9D5A4",
"'. c #FFE1A8",
"]. c #FFE6B2",
"[. c #FFEBBB",
"{. c #FFF4BA",
"}. c #AAA5E8",
"|. c #CFBCCB",
" X c #BCD3FF",
".X c #FDF9D8",
"XX c #FFF6CB",
"oX c #D1D4F3",
"OX c #FFFFE4",
"+X c None",
/* pixels */
"+X+X+X+X+X+X+X+X+X+X+X+X+X= { ' ] p +X+X+X+X+X+X+X+X+X+X+X+X+X+X",
"+X+X+X+X+X+X+X+X+X+X+X+X. u O.X.o.[ = +X+X+X+X+X+X+X+X+X+X+X+X+X",
"+X+X+X+X+X+X+X+X+X+X+X+Xe @.$.$.$.$.) . +X+X+X+X+X+X+X+X+X+X+X+X",
"+X+X+X+X+X+X+X+X+X+X+Xr +.$.$.$.$.$.#.{   +X+X+X+X+X+X+X+X+X+X+X",
"+X+X+X+X+X+X+X+X+X+X@ } $.$.$.$.$.$.$.$.e +X+X+X+X+X+X+X+X+X+X+X",
"+X+X+X+X+X+X+X+X+X+ t O.$.$.$.$.$.$.$.@.} @ +X+X+X+X+X+X+X+X+X+X",
"+X+X+X+X+X+X+X+X  y ' Q y.d.d.d.d.d.k.;.$.`   +X+X+X+X+X+X+X+X+X",
"+X+X+X+X+X+X+X+X< + :.p.j.h.h.h.h.h.h.r. .{   +X+X+X+X+X+X+X+X+X",
"+X+X+X+X+X+X+X+X~ 1 0.h.s.g.g.g.g.f.e.h.2.i * +X+X+X+X+X+X+X+X+X",
"+X+X+X+X+X+XK V./ H s.a.0.g.g.g.f.i.R g.f.B P P.Y +X+X+X+X+X+X+X",
"+X+X+X+X+X+X8 Z.C.7.y.2.h.g.g.s.9.1.C.,.h.U `.[.A +X+X+X+X+X+X+X",
"+X+X+X+X+X+X+XU N.<.,.y.h.g.h.0.w.N.P.D.u.T '.l.+X+X+X+X+X+X+X+X",
"+X+X+X+X+X+X+X3 / ( D u.j.s.a.R U U./._.W 2.^ 8 +X+X+X+X+X+X+X+X",
"+X+X+X+X+X+X+X  c n.L ! q.q.5.D P ~.`.N.A d.  +X+X+X+X+X+X+X+X+X",
"+X+X+X+X+X+X+X  q 8.7.3 4 3.K D C.Z.A O ,.d.  +X+X+X+X+X+X+X+X+X",
"+X+X+X+X+X+X+X+Xo >.9.w G.b S M.^.I z n H p.  +X+X+X+X+X+X+X+X+X",
"+X+X+X+X+X+X+X+X+Xf H C. XH.R _.~.v J.OX7 Y . +X+X+X+X+X+X+X+X+X",
"+X+X+X+X+X+X+X+X+X3 F m.}.L..X_.{.oXK.(.  X +X+X+X+X+X+X+X+X+X+X",
"+X+X+X+X+X+X+X+X+X+X% f I.oXXX'.[..X|.R   +X+X+X+X+X+X+X+X+X+X+X",
"+X+X+X+X+X+X+X+X+X+X: g ! ^.).).)./.b.A s +X+X+X+X+X+X+X+X+X+X+X",
"+X+X+X+X+X+X+X+X+X. &.F.1 G A.A.A.z.5 g T.# +X+X+X+X+X+X+X+X+X+X",
"+X+X+X+X+X+X+X+X. s W.=.i ] { [ ] ] ` _ W.-.    +X+X+X+X+X+X+X+X",
"+X+X+X+X+X+X+Xj x.E.-.q i X.[ ' ] { [ 6 x Q.c.c.X +X+X+X+X+X+X+X",
"+X+X+X+X+X+X  c..X!.a ; | p ' X.{ p p d   *.{.{.X +X+X+X+X+X+X+X",
"+X+X+X+X+X+X  c ^.w - #.o.M L h.i.0 h $.  X Z.C.. +X+X+X+X+X+X+X",
"+X+X+X+X+X+X+X$ , O +X' $.o...h.i.) #.$.  +X> > +X+X+X+X+X+X+X+X",
"+X+X+X+X+X+X+X+X. +X+X= ) { $.%.$.$.@.i   +X    +X+X+X+X+X+X+X+X",
"+X+X+X+X+X+X+X+X+X+X+X  o e +.o.O.o.y * O   +X+X+X+X+X+X+X+X+X+X",
"+X+X+X+X+X+X+X+X+X+X+X+X& 9 . . % V V Z 9 . +X+X+X+X+X+X+X+X+X+X",
"+X+X+X+X+X+X+X+X+X+X+X+XX % +X+X+X2 C C % +X+X+X+X+X+X+X+X+X+X+X",
"+X+X+X+X+X+X+X+X+X+X+X+X+X+X+X+X+Xo N m   +X+X+X+X+X+X+X+X+X+X+X",
"+X+X+X+X+X+X+X+X+X+X+X+X+X+X+X+X+X+X    +X+X+X+X+X+X+X+X+X+X+X+X"
};
