/* XPM */
static char *result[] = {
/* columns rows colors chars-per-pixel */
"32 32 178 2 ",
"   c #010101",
".  c #0B0502",
"X  c #000B01",
"o  c #150A05",
"O  c #001400",
"+  c #1A1407",
"@  c #1D1914",
"#  c #2A0706",
"$  c #320005",
"%  c #2E1700",
"&  c #3C1007",
"*  c #281A14",
"=  c #002400",
"-  c #002D00",
";  c #003500",
":  c #18361D",
">  c #322606",
",  c #33271C",
"<  c #383026",
"1  c #7C001E",
"2  c #6D0506",
"3  c #5D2010",
"4  c #632600",
"5  c #673B00",
"6  c #7F3E07",
"7  c #7B350B",
"8  c #723414",
"9  c #483C2A",
"0  c #513F2E",
"q  c #713529",
"w  c #004A00",
"e  c #005D00",
"r  c #3A5C00",
"t  c #006502",
"y  c #007C00",
"u  c #007100",
"i  c #374C2F",
"p  c #3A6939",
"a  c #237F3A",
"s  c #4C480B",
"d  c #784704",
"f  c #5B7600",
"g  c #546A31",
"h  c #6D5C46",
"j  c #656D79",
"k  c #8C0000",
"l  c #AC0000",
"z  c #823600",
"x  c #882410",
"c  c #8A3B17",
"v  c #AC2C03",
"b  c #800025",
"n  c #DF0006",
"m  c #ED0000",
"M  c red",
"N  c #8B4900",
"B  c #905400",
"V  c #884313",
"C  c #975B1C",
"Z  c #A14E00",
"A  c #A35A01",
"S  c #B55B10",
"D  c #846000",
"F  c #AD7707",
"G  c #B17018",
"H  c #9D5A29",
"J  c #865535",
"K  c #A15F21",
"L  c #9D6128",
"P  c #B67922",
"I  c #AE7136",
"U  c #AD762D",
"Y  c #C8792B",
"T  c #8E6241",
"R  c #946B50",
"E  c #B1774C",
"W  c #008300",
"Q  c #008C00",
"!  c #009500",
"~  c #009C00",
"^  c #00AA00",
"/  c #00A000",
"(  c #00B300",
")  c #00BD00",
"_  c #578000",
"`  c #6D9A00",
"'  c #778500",
"]  c #00C400",
"[  c #00CC00",
"{  c #00D200",
"}  c #00D900",
"|  c #00E700",
" . c #00F600",
".. c #00FF00",
"X. c #33FF00",
"o. c #49A353",
"O. c #64F776",
"+. c #B28100",
"@. c #BA8D00",
"#. c #BE9500",
"$. c #D78E00",
"%. c #CE9800",
"&. c #DD9000",
"*. c #DF9C18",
"=. c #C7831A",
"-. c #E7A600",
";. c #EAB700",
":. c #F3BC00",
">. c #E8A213",
",. c #D0852E",
"<. c #C58F33",
"1. c #D7C300",
"2. c #DDD200",
"3. c #F1C900",
"4. c #FED500",
"5. c #F1DD00",
"6. c #EBE900",
"7. c #EBE200",
"8. c #FFEE00",
"9. c #F7E700",
"0. c #EAFD00",
"q. c #F5F300",
"w. c #FEF700",
"e. c #F5FD00",
"r. c #FEFE00",
"t. c #BC8959",
"y. c #9C997B",
"u. c #B48B64",
"i. c #BEAA67",
"p. c #BBA764",
"a. c #A2A175",
"s. c #C4924F",
"d. c #C99353",
"f. c #D2A053",
"g. c #C68F64",
"h. c #C69766",
"j. c #D29A6F",
"k. c #DAAB79",
"l. c #C6B36F",
"z. c #EFA663",
"x. c #E2B47B",
"c. c #F0B371",
"v. c #4C3080",
"b. c #6D5388",
"n. c #617085",
"m. c #221AFD",
"M. c #2B39FF",
"N. c #3847FF",
"B. c #DFB086",
"V. c #E7B784",
"C. c #A7C884",
"Z. c #99FF82",
"A. c #8EFF90",
"S. c #9DFF95",
"D. c #85F28A",
"F. c #A1F49A",
"G. c #A2FFA0",
"H. c #EFC595",
"J. c #F7CF9C",
"K. c #F9C995",
"L. c #FDD69F",
"P. c #FAC389",
"I. c #FFCCA3",
"U. c #FEDDAA",
"Y. c #FFDCA6",
"T. c #FFEEAF",
"R. c #FFE5B3",
"E. c #FFE7B8",
"W. c #EDE9A3",
"Q. c #CFC3DC",
"!. c #EDD6DA",
"~. c #FFF9C5",
"^. c #FFF6D4",
"/. c #FFFFD4",
"(. c #D4CFE7",
"). c #F9FEFF",
"_. c #F4F3EE",
"`. c None",
/* pixels */
"`.`.`.`.`.`.`.`.`.`.`.`.`.X ( ~ ~ !   `.`.`.`.`.`.`.`.`.`.`.`.`.",
"`.`.`.`.`.`.`.`.`.`.`.`.`.w [ ] ] ] - `.`.`.`.`.`.`.`.`.`.`.`.`.",
"`.`.`.`.`.`.`.`.`.`.`.`.= [ ........( X `.`.`.`.`.`.`.`.`.`.`.`.",
"`.`.`.`.`.`.`.`.`.`.`.= } .......... .{   `.`.`.`.`.`.`.`.`.`.`.",
"`.`.`.`.`.`.`.`.`.`.X ! ................e   `.`.`.`.`.`.`.`.`.`.",
"`.`.`.`.`.`.`.`.`.`.w ]  .............| } ; `.`.`.`.`.`.`.`.`.`.",
"`.`.`.`.`.`.`.`.`.; ^ Y ;.0.0.0.0.0.0.U ..( O `.`.`.`.`.`.`.`.`.",
"`.`.`.`.`.`.`.`.`.X ' 4.8.r.r.w.r.w.r.3.` ]   `.`.`.`.`.`.`.`.`.",
"`.`.`.`.`.`.`.`.u.& $.r.5.e.e.e.e.e.1.r.-.W # `.`.`.`.`.`.`.`.`.",
"`.`.`.`.`.`.`.s.g.A 4.7.;.e.e.e.q.6.I 6.r.A V B.<.`.`.`.`.`.`.`.",
"`.`.`.`.`.`.`.t.H.#.6.@.w.e.e.e.-.+.k.F e.-.K.T.H `.`.`.`.`.`.`.",
"`.`.`.`.`.`.`.H h.<.+.-.r.e.e.3.<.g.k.B.4.Y Y.u.8 `.`.`.`.`.`.`.",
"`.`.`.`.`.`.`.`.J k.c :.8.9.7.,.C V.H.E.Y #.d.z `.`.`.`.`.`.`.`.",
"`.`.`.`.`.`.`.`.9 c.F P >.>.>.K V x.Y.k.7 e.B `.`.`.`.`.`.`.`.`.",
"`.`.`.`.`.`.`.`.* %.2.3 % $.P z h.V.A o L r.> `.`.`.`.`.`.`.`.`.",
"`.`.`.`.`.`.`.`.. D 4.q n.b.z E J.H v.j K 8.+ `.`.`.`.`.`.`.`.`.",
"`.`.`.`.`.`.`.`.`.> F J ).m.I J.R.J M.).8 P + `.`.`.`.`.`.`.`.`.",
"`.`.`.`.`.`.`.`.`.`.o 9 !.N._.Y.R._.M.E.o . `.`.`.`.`.`.`.`.`.`.",
"`.`.`.`.`.`.`.`.`.`.`.o x.(./.R.E.^.Q.f.  `.`.`.`.`.`.`.`.`.`.`.",
"`.`.`.`.`.`.`.`.`.`.`.g S c.I.I.I.K.z.Z p `.`.`.`.`.`.`.`.`.`.`.",
"`.`.`.`.`.`.`.`.`.`.p Z.4 d l.i.p.p.5 5 S.: `.`.`.`.`.`.`.`.`.`.",
"`.`.`.`.`.`.`.`.. : F.O.u / ^ ^ ^ / ! y A.D.X   `.`.`.`.`.`.`.`.",
"`.`.`.`.`.`.`.< y.C.D.i r ] ( ~ ~ ( ) s i G.a.y.@ `.`.`.`.`.`.`.",
"`.`.`.`.`.`.`.h /.W.a = _ y Q ] ) W y f O o.T./.< `.`.`.`.`.`.`.",
"`.`.`.`.`.`.`.0 P.R   (  .x B r.q.7 d ..Q   u.x.* `.`.`.`.`.`.`.",
"`.`.`.`.`.`.`.o , @ `.e ..[ Q r.w.W | ..- `., , `.`.`.`.`.`.`.`.",
"`.`.`.`.`.`.`.`.  `.`.X ! .. .X... .} W   `.`.  `.`.`.`.`.`.`.`.",
"`.`.`.`.`.`.`.`.`.`.. # $ ~ } { { } t     `.`.`.`.`.`.`.`.`.`.`.",
"`.`.`.`.`.`.`.`.`.`.@ v m 1 1 X X X z . `.`.`.`.`.`.`.`.`.`.`.`.",
"`.`.`.`.`.`.`.`.`.`.. 2 M n $ `.`.`.# `.`.`.`.`.`.`.`.`.`.`.`.`.",
"`.`.`.`.`.`.`.`.`.`.`.o l k   `.`.`.X `.`.`.`.`.`.`.`.`.`.`.`.`.",
"`.`.`.`.`.`.`.`.`.`.`.`.    `.`.`.`.`.`.`.`.`.`.`.`.`.`.`.`.`.`."
};
