/* XPM */
static char *result[] = {
/* columns rows colors chars-per-pixel */
"32 32 178 2 ",
"   c #010201",
".  c #0B0201",
"X  c #000A00",
"o  c #0A0A05",
"O  c #160B03",
"+  c #1A0805",
"@  c #001100",
"#  c #001D00",
"$  c #17140B",
"%  c #1C1712",
"&  c #240705",
"*  c #370000",
"=  c #251907",
"-  c #301B11",
";  c #002300",
":  c #002A00",
">  c #003C00",
",  c #003200",
"<  c #19321A",
"1  c #3E230D",
"2  c #28231C",
"3  c #3C3322",
"4  c #521A00",
"5  c #4E0313",
"6  c #681504",
"7  c #75001E",
"8  c #473013",
"9  c #663900",
"0  c #723C18",
"q  c #473025",
"w  c #005D00",
"e  c #005100",
"r  c #3D5C00",
"t  c #006200",
"y  c #006B00",
"u  c #007B00",
"i  c #53450E",
"p  c #635000",
"a  c #775C00",
"s  c #614D19",
"d  c #704707",
"f  c #446500",
"g  c #686300",
"h  c #614732",
"j  c #6A513E",
"k  c #7D4725",
"l  c #486C33",
"z  c #553279",
"x  c #5A6046",
"c  c #596678",
"v  c #833C05",
"b  c #863710",
"n  c #813927",
"m  c #844301",
"M  c #9B4807",
"N  c #8B5100",
"B  c #894B14",
"V  c #974F1A",
"C  c #AA5E00",
"Z  c #9C7600",
"A  c #A56700",
"S  c #B2680C",
"D  c #AE7400",
"F  c #BA7A00",
"G  c #B87C1C",
"H  c #AD6C19",
"J  c #894C21",
"K  c #925224",
"L  c #8B5835",
"P  c #AE7422",
"I  c #B27725",
"U  c #A26732",
"Y  c #B47633",
"T  c #A2682A",
"R  c #C37E16",
"E  c #E97A2B",
"W  c #8D5840",
"Q  c #82765B",
"!  c #B67F52",
"~  c #AF7A52",
"^  c #B37960",
"/  c #008D00",
"(  c #009300",
")  c #009D00",
"_  c #00A200",
"`  c #00AB00",
"'  c #00B200",
"]  c #00BD00",
"[  c #43A300",
"{  c #74A600",
"}  c #00C400",
"|  c #00CD00",
" . c #00D300",
".. c #00DD00",
"X. c #00E700",
"o. c #00EB00",
"O. c #00F700",
"+. c #00FF00",
"@. c #68DB00",
"#. c #50A95B",
"$. c #72EB7B",
"%. c #AF8B00",
"&. c #BA8C00",
"*. c #B8813A",
"=. c #C19200",
"-. c #C69B00",
";. c #DF9F07",
":. c #D89711",
">. c #DCB100",
",. c #ECAF00",
"<. c #F6BF00",
"1. c #ECA416",
"2. c #F4AD12",
"3. c #C3872F",
"4. c #F3A12B",
"5. c #B6C800",
"6. c #D9D600",
"7. c #D7C600",
"8. c #EEC300",
"9. c #FFCA00",
"0. c #E4D500",
"q. c #E0DE00",
"w. c #FDD300",
"e. c #FEDB00",
"r. c #F3D100",
"t. c #DFFA00",
"y. c #F9E800",
"u. c #EDF400",
"i. c #EAFD00",
"p. c #F2F300",
"a. c #F5FD00",
"s. c #FDFE00",
"d. c #849248",
"f. c #BBA967",
"g. c #B4A06E",
"h. c #C18D4A",
"j. c #C08E5A",
"k. c #D48B44",
"l. c #D4A454",
"z. c #D0B953",
"x. c #C08F68",
"c. c #CE9D6A",
"v. c #C2B36D",
"b. c #D3A271",
"n. c #D8AC7A",
"m. c #E1B171",
"M. c #F4B06B",
"N. c #81D16B",
"B. c #84EE7A",
"V. c #715D9C",
"C. c #636F83",
"Z. c #2429FF",
"A. c #2E38FF",
"S. c #3542FF",
"D. c #DEAE88",
"F. c #E5B886",
"G. c #E6BB90",
"H. c #88FF8B",
"J. c #90FF9F",
"K. c #F5C899",
"L. c #FFD692",
"P. c #FFCCA2",
"I. c #FEDDA9",
"U. c #CDFFAF",
"Y. c #FFEEBC",
"T. c #FDE3B8",
"R. c #FBE1AB",
"E. c #D0C5DF",
"W. c #F3DAD5",
"Q. c #FFF9C4",
"!. c #FFF7C3",
"~. c #FFF7D4",
"^. c #FFFFD0",
"/. c #D3CDE5",
"(. c #FDFFFF",
"). c #F2F1F2",
"_. c #FBF9E9",
"`. c None",
/* pixels */
"`.`.`.`.`.`.`.`.`.`.`.`.`.`.  _ ' @ `.`.`.`.`.`.`.`.`.`.`.`.`.`.",
"`.`.`.`.`.`.`.`.`.`.`.`.    w ) _ y     `.`.`.`.`.`.`.`.`.`.`.`.",
"`.`.`.`.`.`.`.`.`.`.`.`., e  .} } ..t > `.`.`.`.`.`.`.`.`.`.`.`.",
"`.`.`.`.`.`.`.`.`.`.`.X ] +.+.+.+.+.+.| ; `.`.`.`.`.`.`.`.`.`.`.",
"`.`.`.`.`.`.`.`.`.`.`.  O.+.+.+.+.+.+.+.; `.`.`.`.`.`.`.`.`.`.`.",
"`.`.`.`.`.`.`.`.`.`.X w +.+.+.+.+.+.+.+.u @ `.`.`.`.`.`.`.`.`.`.",
"`.`.`.`.`.`.`.`.`.`.@ ..X.+.+.+.+.+.+.X.X.: `.`.`.`.`.`.`.`.`.`.",
"`.`.`.`.`.`.`.`.`.`.# +.I i.i.i.i.i.a.R +.> `.`.`.`.`.`.`.`.`.`.",
"`.`.`.`.`.`.`.`.`.  / { r.s.s.s.s.s.s.w.5.) @ `.`.`.`.`.`.`.`.`.",
"`.`.`.`.`.`.`.`.x.= ( E s.a.a.a.a.s.7.s.9.[ = ~ `.`.`.`.`.`.`.`.",
"`.`.`.`.`.`.`.Y n.B M <.a.p.a.a.a.p.Y 0.s.A b c.h.`.`.`.`.`.`.`.",
"`.`.`.`.`.`.`.U !.K.D p.a.,.p.a.s.&.b.I u.&.D.Q.! `.`.`.`.`.`.`.",
"`.`.`.`.`.`.`.V j.! =.s.8.1.a.a.s.G b.D.e.F G.n.V `.`.`.`.`.`.`.",
"`.`.`.`.`.`.`.`.4 v H 0.4.:.y.s.s.A D.!.k.=.l.0 `.`.`.`.`.`.`.`.",
"`.`.`.`.`.`.`.`.$ G v I 1.P 1.u.a.m K.F.n q.>.- `.`.`.`.`.`.`.`.",
"`.`.`.`.`.`.`.`.- 9.6.T O F 2.-.N c.H O k u.e.8 `.`.`.`.`.`.`.`.",
"`.`.`.`.`.`.`.`.O Z y.J C.V.C v ^ Y z c L w.%.= `.`.`.`.`.`.`.`.",
"`.`.`.`.`.`.`.`.`.o R V (.Z.W K Y.U Z.(.L H = `.`.`.`.`.`.`.`.`.",
"`.`.`.`.`.`.`.`.`.`.$ 3.!.Z.).I.I._.S.W.3 . `.`.`.`.`.`.`.`.`.`.",
"`.`.`.`.`.`.`.`.`.`.`.8 l.E.~.Y.R.~./.m.. * . `.`.`.`.`.`.`.`.`.",
"`.`.`.`.`.`.`.`.`.`.`.  M M.K.P.P.P.M.S l d.s O `.`.`.`.`.`.`.`.",
"`.`.`.`.`.`.`.`.`.`.`.. B 9 f.f.f.v.d 6 N.J.z.1 `.`.`.`.`.`.`.`.",
"`.`.`.`.`.`.`.`.`.`.`.  B.u ` _ _ ] / o $ g.L.q `.`.`.`.`.`.`.`.",
"`.`.`.`.`.`.`.`.`.`.  #.H.f r @.@.f i t   q j % `.`.`.`.`.`.`.`.",
"`.`.`.`.`.`.`.`.`.`.x U.H.6 p s.s.a g  .t     `.`.`.`.`.`.`.`.`.",
"`.`.`.`.`.`.`.`.`.2 Q.R.$.  ` i.a.' +.+.| ; `.`.`.`.`.`.`.`.`.`.",
"`.`.`.`.`.`.`.`.`.2 ^.G.< / _ +.+.O.+.+.w X `.`.`.`.`.`.`.`.`.`.",
"`.`.`.`.`.`.`.`.`.$ Q h   ' o.+.+.+.O./ 5 + `.`.`.`.`.`.`.`.`.`.",
"`.`.`.`.`.`.`.`.`.`.    X t .. . .| (   7 & `.`.`.`.`.`.`.`.`.`.",
"`.`.`.`.`.`.`.`.`.`.`.`.`.  X X X X X   . `.`.`.`.`.`.`.`.`.`.`.",
"`.`.`.`.`.`.`.`.`.`.`.`.`.`.`.`.`.`.`.`.`.`.`.`.`.`.`.`.`.`.`.`.",
"`.`.`.`.`.`.`.`.`.`.`.`.`.`.`.`.`.`.`.`.`.`.`.`.`.`.`.`.`.`.`.`."
};
