/* XPM */
static char *result[] = {
/* columns rows colors chars-per-pixel */
"32 32 186 2 ",
"   c #000000",
".  c #0B0304",
"X  c #001400",
"o  c #001510",
"O  c #19110D",
"+  c #261308",
"@  c #002300",
"#  c #002D00",
"$  c #003700",
"%  c #003A00",
"&  c #342403",
"*  c #3E271C",
"=  c #2F3229",
"-  c #4F0800",
";  c #560007",
":  c #471900",
">  c #420017",
",  c #640001",
"<  c #621F00",
"1  c #700015",
"2  c #5A2404",
"3  c #55340F",
"4  c #6F300C",
"5  c #4C2C33",
"6  c #553D29",
"7  c #712F23",
"8  c #67333E",
"9  c #004200",
"0  c #005400",
"q  c #005C00",
"w  c #005710",
"e  c #006400",
"r  c #006A00",
"t  c #007700",
"y  c #267400",
"u  c #414600",
"i  c #58440D",
"p  c #704F0C",
"a  c #737A1D",
"s  c #4F502A",
"d  c #774130",
"f  c #6F4C33",
"g  c #63632E",
"h  c #47226E",
"j  c #810007",
"k  c #940008",
"l  c #AF0000",
"z  c #A43D05",
"x  c #9A3B2A",
"c  c #DC000C",
"v  c #DC0010",
"b  c red",
"n  c #D8012E",
"m  c #975504",
"M  c #834C11",
"N  c #A25000",
"B  c #A04B04",
"V  c #AB6A02",
"C  c #A87300",
"Z  c #B1791B",
"A  c #B67210",
"S  c #81492F",
"D  c #877E3B",
"F  c #B47220",
"G  c #836042",
"H  c #B57642",
"J  c #B77D52",
"K  c #AE7E58",
"L  c #008300",
"P  c #008A00",
"I  c #009500",
"U  c #009C00",
"Y  c #2E8F00",
"T  c #399B00",
"R  c #00A500",
"E  c #00AB00",
"W  c #00B400",
"Q  c #00BF00",
"!  c #4C8200",
"~  c #679400",
"^  c #77B100",
"/  c #69AC00",
"(  c #6EAE36",
")  c #00C400",
"_  c #00CC00",
"`  c #00D100",
"'  c #00DC00",
"]  c #2FC800",
"[  c #3CD300",
"{  c #00E200",
"}  c #00ED00",
"|  c #00FF00",
" . c #27FF00",
".. c #2BFF00",
"X. c #33FF00",
"o. c #33E800",
"O. c #68C100",
"+. c #7CED00",
"@. c #3F9C55",
"#. c #78B140",
"$. c #68D470",
"%. c #7EE673",
"&. c #9A9700",
"*. c #AE8A00",
"=. c #BE8600",
"-. c #AE9F00",
";. c #BF8E1D",
":. c #B69800",
">. c #96B300",
",. c #A0AA00",
"<. c #D28100",
"1. c #C59900",
"2. c #D38814",
"3. c #D69318",
"4. c #D6AB00",
"5. c #C8B500",
"6. c #CAA800",
"7. c #ECBC00",
"8. c #FFB600",
"9. c #E7A810",
"0. c #C08F26",
"q. c #C78639",
"w. c #F6A821",
"e. c #84E000",
"r. c #DAC700",
"t. c #EAC800",
"y. c #F2CB00",
"u. c #E5D800",
"i. c #FFD500",
"p. c #DBE800",
"a. c #EAE400",
"s. c #E8EA00",
"d. c #F6E700",
"f. c #EDF200",
"g. c #F5FE00",
"h. c #FDFE00",
"j. c #F5F400",
"k. c #9F914C",
"l. c #808A45",
"z. c #BD834B",
"x. c #A98653",
"c. c #9ABC51",
"v. c #B19177",
"b. c #80A664",
"n. c #C7A45B",
"m. c #CC9868",
"M. c #CB9372",
"N. c #CC9166",
"B. c #E3916B",
"V. c #DCA66C",
"C. c #DFAE77",
"Z. c #D1AA70",
"A. c #E9B175",
"S. c #A7C050",
"D. c #6A61B6",
"F. c #3F42D6",
"G. c #6376DB",
"H. c #506CFF",
"J. c #807BE9",
"K. c #768BCD",
"L. c #BDAF9E",
"P. c #D8B589",
"I. c #E6BB84",
"U. c #FFBC9B",
"Y. c #B9FF9C",
"T. c #ADFFA2",
"R. c #DDC084",
"E. c #E8C18B",
"W. c #EBC293",
"Q. c #F5C997",
"!. c #F4D398",
"~. c #FFC5A1",
"^. c #F9D7A2",
"/. c #D5FBAC",
"(. c #FFE2AF",
"). c #FDEAB3",
"_. c #FEE5B6",
"`. c #FFF1BF",
"'. c #AA98D6",
"]. c #9AAFFF",
"[. c #FFEBC1",
"{. c #FFF7C3",
"}. c #FFFFD4",
"|. c #FFFFDF",
" X c #C9D5FF",
".X c None",
/* pixels */
".X.X.X.X.X.X.X.X.X.X.X.X.X.X# e ) $ .X.X.X.X.X.X.X.X.X.X.X.X.X.X",
".X.X.X.X.X.X.X.X.X.X.X.X.Xr R ) } W E 9 .X.X.X.X.X.X.X.X.X.X.X.X",
".X.X.X.X.X.X.X.X.X.X.X.X% U | | | | | L @ .X.X.X.X.X.X.X.X.X.X.X",
".X.X.X.X.X.X.X.X.X.X.X  ` | | | | | | | U   .X.X.X.X.X.X.X.X.X.X",
".X.X.X.X.X.X.X.X.X.X  q | | | | | | | | ' 9 .X.X.X.X.X.X.X.X.X.X",
".X.X.X.X.X.X.X.X.X.X  ) Q o... . ...X.[ ' P   .X.X.X.X.X.X.X.X.X",
".X.X.X.X.X.X.X.X.X.XX ` &.i.h.h.h.h.h.8.O.E X .X.X.X.X.X.X.X.X.X",
".X.X.X.X.X.X.X.X.XO I a u.h.g.g.g.g.g.h.i./ q 5 .X.X.X.X.X.X.X.X",
".X.X.X.X.X.X.XF C.2 u 5.h.y.d.g.g.h.r.r.h.5.i S C.Z .X.X.X.X.X.X",
".X.X.X.X.X.X.Xm Q.m.x s.d.7.d.g.h.a.0.;.a.d.=.J I.m .X.X.X.X.X.X",
".X.X.X.X.X.X.X4 W.{.z.s.4.d.g.g.g.1.M.M.6.j.r.m.Z.4 .X.X.X.X.X.X",
".X.X.X.X.X.X.X.XM I.H f.1.u.h.h.5.z.Q.).V.C 3.3.7 .X.X.X.X.X.X.X",
".X.X.X.X.X.X.X.X.X6 7 y.V 4.y.i.<.m.{.{.N.C -.3 .X.X.X.X.X.X.X.X",
".X.X.X.X.X.X.X.X.X  p 2.2 V w.2.F I.^.x.d 4.>.  .X.X.X.X.X.X.X.X",
".X.X.X.X.X.X.X.X.X  p.V . f 9.N K I.H + 5 t.,.  .X.X.X.X.X.X.X.X",
".X.X.X.X.X.X.X.X.X  7.N L.G.8 F ^.q.h K.v.<.*.  .X.X.X.X.X.X.X.X",
".X.X.X.X.X.X.X.X.X.Xi : _.H.D.P._.R.F.].M.: 3 .X.X.X.X.X.X.X.X.X",
".X.X.X.X.X.X.X.X.X.X.   n.J. X}.^.|.].'.k.o   .X.X.X.X.X.X.X.X.X",
".X.X.X.X.X.X.X.X.X.X.X  M Q._.(.(.(.[.V.S.@.  .X.X.X.X.X.X.X.X.X",
".X.X.X.X.X.X.X.X.X.X.X  < B I.U.U.~.B.z c.T.G   .X.X.X.X.X.X.X.X",
".X.X.X.X.X.X.X.X.X.X.X  g l.G #.( #.! & s #.f .X.X.X.X.X.X.X.X.X",
".X.X.X.X.X.X.X.X.X.X.X. $.T.= e W R Q q       .X.X.X.X.X.X.X.X.X",
".X.X.X.X.X.X.X.X.X.X  - c.k.e I R E Q y > . .X.X.X.X.X.X.X.X.X.X",
".X.X.X.X.X.X.X.X.X.X  K /.s & ^ e.~ i Y R $ .X.X.X.X.X.X.X.X.X.X",
".X.X.X.X.X.X.X.X.X.X  P.|.= + t.h.:.4 ` | r   .X.X.X.X.X.X.X.X.X",
".X.X.X.X.X.X.X.X.X.X  x.[.5 e +.g.] ' | { w   .X.X.X.X.X.X.X.X.X",
".X.X.X.X.X.X.X.X.X.X.X+ = w U | | | | | t X .X.X.X.X.X.X.X.X.X.X",
".X.X.X.X.X.X.X.X.X.X.X.X  # 0 t L P Q T O   .X.X.X.X.X.X.X.X.X.X",
".X.X.X.X.X.X.X.X.X.X.X.X.X          7 n 1 . .X.X.X.X.X.X.X.X.X.X",
".X.X.X.X.X.X.X.X.X.X.X.X.X.X.X.X.X  + c v >   .X.X.X.X.X.X.X.X.X",
".X.X.X.X.X.X.X.X.X.X.X.X.X.X.X.X.X. j b b k   .X.X.X.X.X.X.X.X.X",
".X.X.X.X.X.X.X.X.X.X.X.X.X.X.X.X.X.X; l l , .X.X.X.X.X.X.X.X.X.X"
};
